<?xml version="1.0" encoding="UTF-8" standalone="no"?>
<!DOCTYPE svg PUBLIC "-//W3C//DTD SVG 1.1//EN" "http://www.w3.org/Graphics/SVG/1.1/DTD/svg11.dtd">
<svg width="100%" height="100%" viewBox="0 0 500 500" version="1.1" xmlns="http://www.w3.org/2000/svg" xmlns:xlink="http://www.w3.org/1999/xlink" xml:space="preserve" xmlns:serif="http://www.serif.com/" style="fill-rule:evenodd;clip-rule:evenodd;stroke-linejoin:round;stroke-miterlimit:1.41421;">
    <g transform="matrix(1,0,0,1,-127.126,-127.126)">
        <clipPath id="_clip1">
            <rect x="127.126" y="127.126" width="499.764" height="499.764"/>
        </clipPath>
        <g clip-path="url(#_clip1)">
            <path d="M588.378,408.9L581.476,414.87C575.854,419.47 569.987,423.841 563.834,427.734C561.946,428.928 560.033,430.08 558.09,431.176C556.209,432.239 554.279,433.233 552.31,434.124C545.687,437.122 538.608,438.954 531.342,438.236C530.734,438.176 530.127,438.099 529.518,438.002C529.18,437.697 528.845,437.386 528.511,437.074C526.094,434.807 523.796,432.394 521.516,429.956C516.856,424.979 512.268,419.908 506.885,415.808C505.094,414.444 503.216,413.184 501.216,412.075C498.651,410.658 495.906,409.489 493.067,408.707C492.407,408.526 491.744,408.359 491.075,408.222L493.734,407.913C495.677,407.852 497.625,407.838 499.568,407.899C500.837,407.999 502.101,408.165 503.353,408.396C505.394,408.77 507.402,409.325 509.36,410.036C511.005,410.633 512.615,411.338 514.17,412.168C517.091,413.725 519.8,415.654 522.192,417.929L527.073,423.23C528.282,424.329 529.646,425.03 530.819,424.003C531.067,423.786 531.308,423.496 531.535,423.11C532.21,421.972 531.967,420.671 531.322,419.408C530.368,417.539 528.534,415.752 527.476,414.697C527.117,414.339 526.748,413.993 526.37,413.656C523.644,411.221 520.464,409.332 517.092,407.922C512.06,405.817 506.753,404.909 501.376,404.61L495.163,404.447L493.093,404.556L497.044,401.785L499.508,401.284L504.017,400.784C505.865,400.746 507.713,400.756 509.554,400.843C510.486,400.934 511.413,401.074 512.335,401.237C514.126,401.554 515.893,402.007 517.622,402.596C519.73,403.314 521.785,404.221 523.749,405.338C525.61,406.398 527.373,407.619 529.018,408.979C530.825,410.474 532.489,412.138 533.97,413.966C533.98,413.98 533.992,413.994 534.003,414.007C535.394,415.728 538.437,419.301 540.365,415.98C540.888,415.08 540.851,414.094 540.508,413.114C539.808,411.117 537.828,409.136 536.666,407.927C536.643,407.903 536.618,407.881 536.596,407.858C534.869,406.077 532.893,404.555 530.775,403.265C529.283,402.358 527.724,401.56 526.123,400.88C520.744,398.591 515.064,397.683 509.32,397.449C507.152,397.262 504.971,397.252 502.789,397.425L506.487,394.392C508.107,394.032 509.746,393.788 511.39,393.652C513.332,393.591 515.28,393.581 517.223,393.643C521.848,394.005 526.397,395.246 530.611,397.3C531.018,397.498 531.426,397.695 531.825,397.908C533.884,399.005 535.834,400.291 537.646,401.749L542.186,406.12C543.601,407.763 546.967,412.614 549.19,408.849C550.208,407.133 549.139,405.045 547.747,403.274C546.852,402.136 545.825,401.128 545.131,400.436C544.646,399.953 544.139,399.496 543.621,399.051C541.758,397.45 539.698,396.087 537.517,394.956C536.611,394.487 535.686,394.055 534.747,393.662C530.955,392.078 527.006,391.171 522.987,390.694C521.102,390.469 519.201,390.337 517.293,390.277C515.27,390.121 513.234,390.118 511.207,390.272L514.349,387.477C516.286,386.995 518.248,386.681 520.219,386.522L526.048,386.512C527.925,386.66 529.79,386.953 531.626,387.383C534.749,388.117 537.787,389.253 540.65,390.778C541.523,391.243 542.375,391.746 543.208,392.278C544.476,393.085 545.69,393.971 546.848,394.927C548.343,396.163 549.744,397.514 551.016,398.99C552.43,400.632 555.792,405.483 558.02,401.719C559.686,398.901 555.735,395.076 553.961,393.306C551.002,390.366 547.411,388.137 543.577,386.536C541.681,385.743 539.745,385.122 537.781,384.637C535.743,384.133 533.676,383.777 531.589,383.537C529.778,383.328 527.953,383.205 526.123,383.146L519.255,383.174C520.374,382.228 521.502,381.296 522.654,380.398L529.045,379.396C530.987,379.33 532.935,379.321 534.878,379.382C536.378,379.499 537.867,379.72 539.343,380.019C541.168,380.39 542.968,380.896 544.727,381.538C546.351,382.131 547.941,382.829 549.48,383.647L552.469,385.424C554.513,386.768 556.417,388.316 558.146,390.048L560.445,392.588C561.544,393.928 563.197,395.886 564.756,395.984C565.173,396.009 565.583,395.902 565.974,395.615C566.277,395.39 566.57,395.058 566.845,394.593C568.517,391.77 564.56,387.945 562.786,386.175C560.138,383.539 556.973,381.48 553.584,379.927C553.192,379.748 552.799,379.572 552.402,379.406C550.193,378.478 547.927,377.793 545.627,377.28C545.197,377.184 544.768,377.092 544.335,377.008C544.769,376.925 545.202,376.832 545.634,376.737C547.861,376.243 550.056,375.582 552.2,374.7C552.699,374.495 553.193,374.278 553.684,374.051C556.882,372.573 559.876,370.641 562.426,368.197C564.289,366.413 568.577,362.354 566.845,359.423C566.564,358.948 566.263,358.617 565.948,358.397C565.589,358.146 565.212,358.044 564.829,358.057C563.193,358.11 561.44,360.228 560.399,361.49L558.148,363.968C556.45,365.669 554.582,367.189 552.579,368.516L549.911,370.131C548.241,371.048 546.51,371.826 544.738,372.474C542.977,373.118 541.172,373.622 539.343,373.993C537.883,374.288 536.409,374.507 534.925,374.625C532.939,374.691 530.955,374.677 528.965,374.616L522.654,373.619C521.502,372.72 520.374,371.788 519.255,370.842L526.09,370.875C527.939,370.816 529.782,370.693 531.612,370.482C533.698,370.241 535.766,369.883 537.803,369.378C539.688,368.912 541.548,368.32 543.371,367.57C547.125,366.025 550.655,363.885 553.596,361.067C555.459,359.283 559.752,355.224 558.02,352.298C555.928,348.763 552.734,352.976 551.33,354.653C549.954,356.294 548.427,357.792 546.781,359.146C545.668,360.062 544.497,360.907 543.28,361.685C542.561,362.145 541.831,362.589 541.081,363C538.093,364.643 534.908,365.853 531.63,366.622C529.808,367.05 527.958,367.346 526.095,367.495L520.14,367.485C518.196,367.327 516.259,367.017 514.349,366.54C514.339,366.535 514.329,366.535 514.32,366.535L511.207,363.745C513.225,363.894 515.247,363.894 517.261,363.745C519.187,363.684 521.107,363.551 523.014,363.323C526.951,362.851 530.822,361.97 534.546,360.439C535.554,360.025 536.544,359.563 537.512,359.061C539.701,357.927 541.772,356.569 543.642,354.964C544.026,354.634 544.403,354.293 544.77,353.941C545.558,353.185 546.776,352.024 547.793,350.715C549.182,348.925 550.19,346.857 549.19,345.167C547.102,341.637 543.904,345.846 542.505,347.522L537.64,352.274C535.957,353.626 534.154,354.831 532.256,355.874C531.72,356.169 531.177,356.446 530.628,356.713C526.423,358.759 521.884,359.996 517.269,360.369C515.285,360.43 513.3,360.421 511.314,360.355C509.694,360.224 508.084,359.98 506.482,359.625L502.789,356.591C503.833,356.675 504.882,356.717 505.926,356.717C507.054,356.717 508.183,356.666 509.306,356.572C515.06,356.333 520.744,355.43 526.123,353.136C527.719,352.456 529.272,351.663 530.759,350.758C532.882,349.468 534.861,347.945 536.595,346.16C536.618,346.136 536.643,346.114 536.666,346.09C537.816,344.896 539.805,342.903 540.508,340.9C540.852,339.917 540.891,338.932 540.365,338.037C538.424,334.726 535.419,338.26 534.005,340.007C533.993,340.021 533.98,340.037 533.97,340.05C532.495,341.872 530.834,343.538 529.031,345.032C527.382,346.399 525.614,347.623 523.749,348.679C521.752,349.807 519.665,350.723 517.523,351.446C515.846,352.012 514.134,352.452 512.4,352.765C511.424,352.94 510.442,353.088 509.456,353.183L503.037,353.215C501.858,353.114 500.68,352.95 499.506,352.734L497.049,352.232L493.093,349.46L495.162,349.57L501.375,349.405C506.68,349.111 511.918,348.222 516.891,346.179C520.331,344.763 523.577,342.845 526.359,340.367C526.613,340.141 526.869,339.916 527.115,339.681C528.261,338.581 530.321,336.623 531.337,334.599C531.975,333.33 532.203,332.034 531.535,330.907C531.307,330.52 531.064,330.232 530.813,330.017C529.651,329.025 528.288,329.725 527.098,330.79L522.193,336.076C519.919,338.24 517.363,340.097 514.602,341.614C512.911,342.541 511.158,343.329 509.361,343.98C507.404,344.69 505.395,345.236 503.357,345.611C502.118,345.838 500.869,346.007 499.614,346.108L493.543,346.083C492.717,346.014 491.894,345.92 491.07,345.795C491.741,345.657 492.406,345.489 493.067,345.307C495.91,344.524 498.656,343.358 501.216,341.942C503.215,340.832 505.092,339.574 506.883,338.21C512.266,334.111 516.854,329.04 521.514,324.062C523.795,321.625 526.094,319.212 528.512,316.946C528.847,316.633 529.183,316.321 529.521,316.014C530.134,315.917 530.745,315.839 531.354,315.779C538.618,315.063 545.704,316.896 552.329,319.899C554.106,320.705 555.851,321.593 557.557,322.54C559.658,323.709 561.726,324.943 563.762,326.229C569.943,330.135 575.83,334.533 581.476,339.146L588.401,345.135C599.944,355.584 610.423,367.222 622.507,377.008C610.415,386.801 599.928,398.444 588.378,408.9ZM591.466,421.361C596.37,430.354 600.683,439.663 604.721,449.076C608.66,458.276 612.295,467.608 617.038,476.432C607.444,479.318 598.275,483.346 588.983,487.066C579.476,490.871 569.842,494.4 560.014,497.29C557.502,498.03 554.875,498.789 552.173,499.523C551.868,495.73 551.481,491.943 550.988,488.168C549.352,475.703 547.018,461.543 540.301,450.456C541.227,451.378 542.114,452.345 542.95,453.362C545.931,456.985 548.268,461.112 549.743,465.568C550.469,467.761 551.309,473.076 554.976,471.428C558.422,469.883 556.071,464.132 555.154,461.777C553.403,457.289 550.523,453.313 547.09,449.957C545.097,448.005 542.923,446.305 540.631,444.788C543.248,445.318 545.915,445.645 548.626,445.691C553.298,445.772 558.035,445.065 562.376,443.272C564.784,442.274 571.018,439.756 569.615,436.085C568.262,432.533 564.263,435.229 562.235,436.289C558.066,438.46 553.521,439.786 548.853,440.298C547.377,440.461 545.898,440.538 544.424,440.536C557.6,437.32 569.787,428.359 580.113,420.282C582.62,418.321 585.076,416.298 587.499,414.236C588.891,416.665 590.211,419.061 591.466,421.361ZM522.274,549.752C516.156,549.678 510.035,549.489 503.928,549.1C502.706,549.023 501.485,548.937 500.266,548.842C497.936,548.662 495.608,548.452 493.285,548.203C486.85,547.513 479.691,546.678 472.656,545.139C468.956,544.33 465.291,543.325 461.782,542.041C454.394,539.34 447.705,535.406 442.864,529.474C442.468,528.988 442.081,528.491 441.71,527.977C441.687,527.512 441.67,527.046 441.655,526.58C441.55,523.274 441.631,519.942 441.741,516.605C441.966,509.795 442.306,502.965 441.406,496.284C441.018,493.388 440.395,490.521 439.431,487.695C438.696,485.555 437.772,483.465 436.646,481.495C436.3,480.887 435.936,480.29 435.549,479.708L437.74,481.445C439.093,482.713 440.418,484.02 441.691,485.369C442.568,486.384 443.387,487.449 444.148,488.553C445.328,490.263 446.36,492.076 447.243,493.967C447.984,495.553 448.625,497.191 449.141,498.88C450.103,502.04 450.651,505.312 450.735,508.607C450.764,509.734 450.739,510.865 450.657,511.994C450.588,512.915 450.335,514.337 450.357,515.66C450.383,517.279 450.824,518.748 452.52,518.972C452.701,518.996 452.895,519.008 453.105,519.002C454.747,518.955 455.638,517.683 456.128,516.091C456.701,514.228 456.723,511.926 456.748,510.636C456.764,509.933 456.747,509.231 456.708,508.531C456.492,504.7 455.49,500.928 453.986,497.406C451.919,492.57 448.901,488.335 445.432,484.462L441.155,479.957L439.612,478.566L444.36,479.409L446.462,480.794L450.006,483.628C451.271,484.843 452.515,486.081 453.7,487.372C454.374,488.18 455.003,489.024 455.603,489.889C456.603,491.328 457.495,492.841 458.278,494.419C459.289,496.457 460.123,498.596 460.742,500.823C461.311,502.872 461.691,504.971 461.89,507.087C462.11,509.427 462.106,511.788 461.86,514.128C461.859,514.146 461.856,514.163 461.855,514.181C461.622,516.373 461.093,520.581 464.613,520.173C465.815,520.032 466.597,519.241 467.105,518.162C468.011,516.238 468.048,513.398 468.046,511.676C468.046,511.538 468.046,511.405 468.045,511.282C468.038,508.922 467.721,506.582 467.168,504.297C466.68,502.279 466.01,500.304 465.185,498.403C462.975,493.318 459.735,488.926 456.027,484.914L451.51,480.387L456.275,480.855C457.694,481.763 459.038,482.76 460.307,483.842C461.659,485.116 462.984,486.421 464.258,487.77C467.332,491.331 469.719,495.476 471.27,499.97C471.421,500.404 471.572,500.837 471.706,501.277C472.384,503.5 472.851,505.782 473.101,508.085L473.224,514.391C473.064,516.568 471.875,521.512 475.672,521.404C478.02,521.336 478.835,518.768 479.131,516.339C479.284,515.078 479.299,513.854 479.314,513.038C479.333,512.17 479.309,511.304 479.245,510.442C479.063,507.982 478.559,505.55 477.811,503.195C477.446,502.044 477.025,500.911 476.553,499.802C475.018,496.214 472.957,492.957 470.579,489.931C469.389,488.415 468.12,486.956 466.795,485.546C465.479,484.025 464.057,482.597 462.53,481.286L466.697,481.51C466.697,481.515 466.697,481.515 466.701,481.515C468.438,482.554 470.068,483.744 471.59,485.045L475.541,488.969C476.817,490.448 477.977,492.028 479.007,493.69C480.698,496.418 482.044,499.371 482.989,502.48C483.289,503.462 483.544,504.455 483.762,505.456C484.065,506.854 484.284,508.268 484.422,509.69C484.612,511.649 484.65,513.622 484.507,515.594C484.348,517.766 483.158,522.71 486.955,522.603C490.522,522.499 490.551,516.628 490.603,514.241C490.695,509.686 489.619,505.172 487.835,501.005C487.106,499.3 486.259,497.67 485.315,496.105C484.231,494.305 483.02,492.59 481.716,490.945C480.567,489.497 479.349,488.102 478.078,486.749L473.232,481.951C474.684,482.073 476.141,482.208 477.587,482.386L482.873,486.244C484.226,487.517 485.551,488.819 486.824,490.172C487.849,491.359 488.789,492.618 489.657,493.926C490.69,495.483 491.608,497.117 492.4,498.818C493.131,500.388 493.765,502.009 494.272,503.679L495.144,507.126C495.626,509.493 495.872,511.901 495.87,514.316L495.693,517.724C495.484,519.502 495.161,522.029 496.353,523.183C496.606,523.429 496.929,523.614 497.337,523.714C497.601,523.78 497.899,523.811 498.238,523.801C501.806,523.699 501.834,517.828 501.886,515.44C501.966,511.536 501.183,507.66 499.833,504.002C499.609,503.397 499.372,502.796 499.118,502.205C498.254,500.178 497.209,498.266 496.045,496.434C495.815,496.073 495.589,495.709 495.35,495.355C495.706,495.595 496.071,495.824 496.435,496.054C498.204,497.176 500.053,498.188 502.002,499.035C502.639,499.311 503.287,499.565 503.939,499.807C507.436,501.106 511.142,501.891 514.882,501.895C517.345,501.895 523.698,501.952 523.801,498.239L523.26,496.447C522.118,495.132 519.43,495.519 517.706,495.705L514.377,495.871C511.953,495.877 509.535,495.631 507.159,495.148L504.151,494.409C502.311,493.874 500.525,493.196 498.804,492.395C497.104,491.604 495.474,490.684 493.92,489.653C492.648,488.809 491.423,487.897 490.265,486.904C488.875,485.598 487.531,484.236 486.22,482.845L482.386,477.587C482.208,476.14 482.072,474.684 481.95,473.233L486.726,478.055C488.082,479.33 489.481,480.554 490.933,481.706C492.578,483.011 494.291,484.223 496.09,485.308C497.598,486.217 499.163,487.038 500.799,487.751C504.853,489.512 509.245,490.608 513.679,490.612C516.142,490.612 522.494,490.668 522.602,486.955C522.705,483.365 518.234,484.273 516.08,484.465C513.975,484.65 511.864,484.63 509.77,484.432C508.268,484.289 506.776,484.048 505.3,483.72C504.512,483.544 503.726,483.352 502.948,483.125C499.659,482.17 496.54,480.768 493.668,478.985C492.051,477.98 490.511,476.859 489.066,475.621L485.017,471.562C483.729,470.045 482.55,468.43 481.515,466.702C481.515,466.698 481.515,466.698 481.51,466.698L481.285,462.531C482.592,464.047 484.01,465.466 485.522,466.772C486.936,468.102 488.396,469.374 489.915,470.568C492.887,472.906 496.083,474.937 499.601,476.468C500.771,476.977 501.973,477.422 503.193,477.81C505.53,478.551 507.944,479.05 510.386,479.238C511.083,479.291 511.78,479.329 512.48,479.329C513.393,479.329 514.841,479.336 516.307,479.157C518.795,478.852 521.336,478.009 521.403,475.672C521.507,472.081 517.036,472.99 514.882,473.182L508.085,473.101C505.944,472.869 503.825,472.447 501.749,471.843C501.154,471.67 500.566,471.479 499.983,471.278C495.524,469.738 491.411,467.376 487.868,464.337C486.473,463.032 485.129,461.669 483.818,460.279C482.746,459.019 481.754,457.68 480.854,456.276L480.387,451.509C480.387,451.514 480.392,451.519 480.396,451.519C481.786,453.158 483.308,454.665 484.933,456.046C488.94,459.745 493.327,462.975 498.402,465.185C500.303,466.011 502.281,466.684 504.302,467.173C506.587,467.726 508.927,468.043 511.282,468.045L511.675,468.045C513.408,468.045 516.237,468.012 518.157,467.109C519.235,466.601 520.026,465.819 520.173,464.614C520.6,461.079 516.344,461.632 514.179,461.856C514.162,461.858 514.144,461.86 514.128,461.861C511.782,462.105 509.421,462.107 507.079,461.886C504.969,461.687 502.874,461.308 500.822,460.743C498.618,460.132 496.501,459.31 494.481,458.313C492.859,457.513 491.306,456.595 489.831,455.567C488.995,454.984 488.178,454.375 487.395,453.724L483.032,449.389C482.239,448.455 481.494,447.478 480.794,446.462L479.408,444.361L478.565,439.613L479.958,441.157L484.461,445.433C488.279,448.85 492.446,451.833 497.199,453.898C500.781,455.456 504.627,456.491 508.531,456.714C509.047,456.744 509.561,456.762 510.078,456.763C511.458,456.763 514.059,456.78 516.099,456.142C517.699,455.642 518.955,454.739 519.002,453.106C519.008,452.895 518.997,452.702 518.973,452.521C518.749,450.839 517.284,450.407 515.697,450.375C514.547,450.352 513.332,450.539 512.48,450.616C511.182,450.729 509.883,450.759 508.586,450.725C505.463,450.645 502.358,450.153 499.348,449.277C497.492,448.736 495.691,448.05 493.956,447.24C492.07,446.358 490.263,445.326 488.557,444.15C487.485,443.411 486.453,442.618 485.466,441.772L481.278,437.544C480.733,436.894 480.203,436.23 479.698,435.54C480.283,435.928 480.883,436.294 481.493,436.644C483.461,437.769 485.547,438.695 487.694,439.431C490.521,440.396 493.39,441.018 496.286,441.408C502.968,442.306 509.798,441.966 516.607,441.742C519.95,441.631 523.288,441.55 526.601,441.656C527.06,441.67 527.518,441.688 527.977,441.71C528.481,442.076 528.971,442.455 529.449,442.844C535.382,447.678 539.319,454.358 542.024,461.737C543.321,465.275 544.334,468.972 545.148,472.705C546.682,479.724 547.515,486.864 548.202,493.286L549.097,503.9C549.485,510.017 549.675,516.148 549.752,522.275C549.864,531.732 549.663,541.194 550.613,550.614C541.193,549.663 531.731,549.865 522.274,549.752ZM496.825,561.576C491.134,580.46 482.016,598.154 476.426,617.023C459.13,607.633 440.174,601.564 422.794,592.241C419.93,590.705 417.091,589.103 414.288,587.438C416.333,585.036 418.337,582.6 420.281,580.114C428.364,569.777 437.331,557.581 440.541,544.396C440.545,545.702 440.488,547.009 440.362,548.317C439.905,552.989 438.645,557.57 436.529,561.771C435.495,563.819 432.116,569.074 436.692,569.726C440.129,570.216 442.267,564.8 443.278,562.348C444.957,558.27 445.68,553.852 445.692,549.455C445.706,546.446 445.358,543.496 444.769,540.597C446.354,543.002 448.144,545.276 450.211,547.352C453.241,550.398 456.763,552.983 460.709,554.716C463.207,555.815 468.913,558.364 471.076,555.484C473.682,552.012 468.272,550.591 466.066,549.901C461.573,548.492 457.413,546.203 453.751,543.264C452.595,542.338 451.5,541.347 450.462,540.304C461.548,547.019 475.704,549.353 488.168,550.989C491.918,551.479 495.681,551.863 499.449,552.166C498.644,555.327 497.762,558.464 496.825,561.576ZM411.332,585.645C410.523,586.571 409.707,587.491 408.882,588.402C398.432,599.945 386.795,610.423 377.008,622.507C367.215,610.415 355.572,599.928 345.116,588.378L339.146,581.476C334.546,575.855 330.175,569.988 326.283,563.834C325.088,561.947 323.936,560.034 322.84,558.09C321.778,556.209 320.784,554.28 319.892,552.31C316.894,545.688 315.063,538.609 315.781,531.341C315.84,530.735 315.917,530.126 316.013,529.518C316.32,529.179 316.63,528.845 316.943,528.511C319.209,526.094 321.622,523.796 324.059,521.516C329.037,516.857 334.108,512.269 338.208,506.885C339.573,505.094 340.832,503.216 341.941,501.216C343.358,498.652 344.528,495.907 345.309,493.068C345.491,492.408 345.658,491.745 345.794,491.076L346.103,493.735C346.164,495.678 346.178,497.625 346.118,499.568C346.017,500.837 345.851,502.101 345.621,503.354C345.246,505.394 344.692,507.403 343.98,509.361C343.383,511.005 342.677,512.615 341.848,514.17C340.29,517.093 338.359,519.804 336.082,522.198L330.786,527.074C329.687,528.283 328.986,529.647 330.013,530.82C330.23,531.068 330.521,531.308 330.906,531.536C332.045,532.209 333.345,531.968 334.608,531.324C336.477,530.371 338.263,528.536 339.319,527.477C339.678,527.117 340.024,526.747 340.361,526.371C342.795,523.644 344.683,520.464 346.094,517.092C348.2,512.061 349.108,506.753 349.406,501.375L349.57,495.163L349.46,493.093L352.232,497.044L352.733,499.507L353.232,504.017C353.27,505.866 353.26,507.713 353.173,509.554C353.082,510.487 352.943,511.413 352.779,512.335C352.462,514.126 352.009,515.893 351.42,517.622C350.702,519.731 349.795,521.786 348.678,523.749C347.618,525.611 346.398,527.373 345.037,529.018C343.542,530.826 341.878,532.49 340.05,533.97C340.037,533.981 340.022,533.993 340.009,534.003C338.288,535.395 334.715,538.438 338.037,540.366C338.936,540.888 339.921,540.851 340.902,540.508C342.9,539.808 344.88,537.829 346.089,536.666C346.113,536.644 346.135,536.62 346.158,536.596C347.94,534.87 349.461,532.894 350.751,530.776C351.659,529.284 352.456,527.724 353.135,526.123C355.425,520.744 356.333,515.065 356.567,509.321C356.754,507.153 356.764,504.971 356.591,502.789L359.624,506.488C359.985,508.108 360.228,509.746 360.364,511.39C360.425,513.332 360.435,515.281 360.374,517.223C360.01,521.847 358.77,526.398 356.716,530.612C356.518,531.018 356.322,531.426 356.108,531.826C355.011,533.884 353.725,535.834 352.267,537.647L347.896,542.187C346.253,543.6 341.403,546.966 345.167,549.191C346.883,550.208 348.971,549.139 350.742,547.747C351.88,546.853 352.888,545.826 353.58,545.131C354.063,544.647 354.52,544.139 354.964,543.621C356.566,541.758 357.929,539.7 359.06,537.517C359.529,536.612 359.961,535.687 360.354,534.747C361.938,530.955 362.844,527.006 363.323,522.988C363.547,521.102 363.679,519.202 363.74,517.293C363.894,515.271 363.899,513.235 363.744,511.207L366.54,514.349C367.021,516.287 367.335,518.248 367.494,520.22L367.504,526.048C367.356,527.925 367.063,529.79 366.633,531.626C365.899,534.749 364.763,537.788 363.239,540.651C362.773,541.524 362.27,542.375 361.739,543.208C360.931,544.476 360.045,545.69 359.089,546.848C357.853,548.343 356.502,549.745 355.027,551.016C353.383,552.43 348.533,555.791 352.297,558.021C355.116,559.687 358.941,555.736 360.71,553.961C363.65,551.002 365.879,547.412 367.48,543.578C368.274,541.681 368.894,539.745 369.379,537.782C369.883,535.744 370.24,533.676 370.479,531.589C370.688,529.778 370.811,527.954 370.87,526.123L370.842,519.255C371.788,520.374 372.719,521.502 373.618,522.654L374.62,529.045C374.686,530.988 374.695,532.935 374.634,534.878C374.517,536.378 374.296,537.868 373.997,539.343C373.626,541.168 373.12,542.968 372.478,544.727C371.885,546.351 371.188,547.942 370.369,549.481L368.521,552.573C367.182,554.595 365.643,556.481 363.922,558.193L361.45,560.428C360.081,561.549 358.047,563.26 358.032,564.857C358.028,565.214 358.126,565.566 358.355,565.903C358.579,566.233 358.922,566.549 359.423,566.845C362.246,568.517 366.071,564.561 367.841,562.787C370.477,560.138 372.536,556.973 374.088,553.584C374.268,553.193 374.445,552.799 374.611,552.403C375.538,550.194 376.223,547.927 376.736,545.627C376.832,545.198 376.924,544.767 377.008,544.335C377.092,544.77 377.184,545.203 377.279,545.634C377.774,547.862 378.434,550.056 379.315,552.201C379.521,552.7 379.738,553.194 379.965,553.684C381.443,556.882 383.375,559.876 385.819,562.426C387.603,564.289 391.662,568.578 394.593,566.845C395.101,566.545 395.444,566.221 395.662,565.883C395.89,565.531 395.977,565.163 395.957,564.789C395.871,563.186 393.83,561.476 392.574,560.439L390.05,558.151C388.341,556.445 386.814,554.567 385.484,552.554L383.886,549.912C382.968,548.244 382.189,546.512 381.542,544.74C380.898,542.978 380.395,541.173 380.023,539.343C379.728,537.883 379.51,536.409 379.391,534.925C379.325,532.945 379.339,530.955 379.4,528.965L380.397,522.654C381.297,521.502 382.228,520.374 383.174,519.255L383.141,526.09C383.199,527.94 383.323,529.783 383.534,531.613C383.775,533.699 384.133,535.766 384.638,537.803C385.104,539.688 385.696,541.548 386.446,543.371C387.991,547.125 390.131,550.656 392.949,553.596C394.733,555.459 398.792,559.752 401.719,558.021C405.253,555.927 401.039,552.735 399.363,551.33C397.722,549.955 396.224,548.427 394.87,546.782C393.954,545.668 393.109,544.497 392.331,543.281C391.871,542.562 391.427,541.831 391.016,541.081C389.372,538.092 388.163,534.909 387.394,531.631C386.966,529.811 386.67,527.962 386.521,526.1L386.53,520.14C386.689,518.197 386.999,516.259 387.477,514.349C387.481,514.339 387.481,514.33 387.481,514.321L390.271,511.207C390.122,513.225 390.122,515.247 390.271,517.261C390.332,519.188 390.466,521.109 390.693,523.014C391.165,526.952 392.047,530.823 393.577,534.546C393.991,535.554 394.453,536.544 394.955,537.512C396.089,539.702 397.447,541.773 399.053,543.643C399.383,544.028 399.724,544.404 400.075,544.771C400.831,545.558 401.992,546.777 403.301,547.793C405.092,549.182 407.159,550.191 408.849,549.191C412.379,547.103 408.17,543.91 406.494,542.505L401.742,537.64C400.39,535.957 399.186,534.154 398.142,532.256C397.848,531.72 397.57,531.176 397.304,530.628C395.257,526.423 394.02,521.884 393.646,517.27C393.586,515.289 393.596,513.3 393.661,511.315C393.792,509.695 394.035,508.084 394.392,506.483L397.425,502.789C397.341,503.833 397.299,504.882 397.299,505.926C397.299,507.054 397.351,508.183 397.444,509.306C397.683,515.06 398.586,520.744 400.88,526.123C401.56,527.719 402.353,529.273 403.258,530.759C404.549,532.882 406.071,534.862 407.856,536.595C407.88,536.619 407.902,536.644 407.927,536.666C409.12,537.817 411.112,539.805 413.116,540.508C414.099,540.853 415.084,540.891 415.979,540.366C419.29,538.419 415.757,535.419 414.009,534.005C413.995,533.994 413.979,533.981 413.966,533.97C412.144,532.496 410.478,530.834 408.984,529.032C407.617,527.382 406.393,525.615 405.337,523.749C404.209,521.752 403.293,519.665 402.57,517.524C402.005,515.846 401.564,514.134 401.252,512.401C401.075,511.424 400.928,510.443 400.834,509.456L400.801,503.038C400.902,501.859 401.066,500.68 401.282,499.506L401.784,497.049L404.556,493.093L404.446,495.163L404.611,501.375C404.905,506.681 405.794,511.918 407.838,516.891C409.253,520.331 411.171,523.578 413.649,526.36C413.876,526.614 414.1,526.87 414.336,527.116C415.436,528.261 417.393,530.322 419.418,531.337C420.686,531.975 421.982,532.203 423.109,531.536C423.496,531.307 423.784,531.065 423.999,530.814C424.99,529.652 424.292,528.288 423.226,527.098L417.94,522.194C415.776,519.919 413.919,517.363 412.402,514.602C411.475,512.912 410.687,511.159 410.036,509.362C409.325,507.405 408.78,505.396 408.405,503.358C408.178,502.12 408.009,500.871 407.908,499.615L407.929,493.546C408.002,492.718 408.096,491.894 408.222,491.071C408.359,491.742 408.527,492.407 408.709,493.068C409.491,495.911 410.658,498.657 412.074,501.216C413.184,503.215 414.442,505.092 415.806,506.883C419.905,512.266 424.976,516.855 429.954,521.514C432.391,523.795 434.804,526.094 437.069,528.512C437.383,528.847 437.695,529.183 438.002,529.522C438.099,530.134 438.177,530.746 438.237,531.355C438.953,538.619 437.12,545.705 434.117,552.33C433.311,554.107 432.424,555.851 431.476,557.557C430.307,559.659 429.073,561.727 427.787,563.762C423.881,569.944 419.482,575.83 414.869,581.476C413.716,582.888 412.531,584.272 411.332,585.645ZM332.655,591.466C323.662,596.371 314.353,600.683 304.941,604.72C295.74,608.661 286.408,612.295 277.584,617.038C274.699,607.445 270.67,598.276 266.95,588.984C263.145,579.476 259.617,569.842 256.726,560.015C255.987,557.502 255.227,554.875 254.493,552.173C258.287,551.869 262.073,551.482 265.848,550.989C278.314,549.353 292.475,547.018 303.562,540.3C302.639,541.227 301.671,542.114 300.655,542.951C297.031,545.931 292.904,548.268 288.448,549.744C286.255,550.469 280.94,551.309 282.588,554.976C284.128,558.423 289.884,556.072 292.239,555.155C296.727,553.404 300.703,550.524 304.059,547.09C306.011,545.096 307.711,542.923 309.229,540.631C308.699,543.248 308.372,545.915 308.325,548.626C308.244,553.298 308.952,558.036 310.745,562.376C311.742,564.785 314.26,571.018 317.931,569.616C321.483,568.262 318.787,564.263 317.727,562.235C315.556,558.067 314.23,553.522 313.718,548.854C313.555,547.379 313.478,545.902 313.481,544.429C316.699,557.603 325.658,569.788 333.734,580.114C335.695,582.621 337.718,585.077 339.78,587.499C337.35,588.891 334.955,590.211 332.655,591.466ZM250.117,549.097C243.999,549.486 237.869,549.675 231.741,549.752C222.284,549.865 212.822,549.663 203.402,550.614C204.353,541.194 204.151,531.732 204.264,522.275C204.338,516.158 204.527,510.036 204.916,503.928C204.994,502.707 205.08,501.486 205.174,500.266C205.354,497.936 205.565,495.609 205.813,493.286C206.502,486.85 207.338,479.692 208.877,472.657C209.687,468.956 210.691,465.29 211.974,461.783C214.676,454.394 218.611,447.705 224.542,442.865C225.028,442.468 225.525,442.081 226.039,441.71C226.504,441.688 226.97,441.67 227.436,441.656C230.743,441.55 234.074,441.631 237.411,441.742C244.22,441.966 251.051,442.306 257.733,441.407C260.628,441.017 263.496,440.396 266.321,439.431C268.461,438.697 270.551,437.773 272.522,436.647C273.129,436.3 273.726,435.935 274.308,435.549L272.576,437.741C271.302,439.093 269.996,440.418 268.648,441.692C267.632,442.569 266.567,443.387 265.463,444.149C263.756,445.327 261.946,446.357 260.058,447.24C258.469,447.982 256.828,448.624 255.136,449.141C251.976,450.103 248.704,450.651 245.41,450.736C244.282,450.764 243.152,450.74 242.022,450.658C241.1,450.588 239.679,450.335 238.357,450.357C236.737,450.384 235.268,450.825 235.044,452.52C235.02,452.702 235.008,452.895 235.014,453.106C235.061,454.747 236.333,455.638 237.925,456.128C239.789,456.701 242.09,456.723 243.38,456.748C244.083,456.764 244.785,456.747 245.485,456.708C249.316,456.493 253.088,455.491 256.611,453.987C261.446,451.919 265.677,448.901 269.553,445.432L274.059,441.156L275.451,439.613L274.607,444.361L273.222,446.462L270.39,450.004C269.174,451.27 267.935,452.515 266.644,453.701C265.836,454.374 264.992,455.003 264.127,455.604C262.688,456.603 261.174,457.496 259.597,458.279C257.559,459.289 255.42,460.123 253.193,460.743C251.144,461.311 249.045,461.692 246.929,461.89C244.589,462.11 242.228,462.107 239.888,461.861C239.871,461.859 239.852,461.857 239.835,461.856C237.643,461.622 233.435,461.093 233.843,464.614C233.984,465.816 234.775,466.597 235.854,467.106C237.778,468.011 240.618,468.048 242.34,468.046C242.478,468.046 242.611,468.046 242.734,468.045C245.093,468.038 247.434,467.721 249.719,467.168C251.737,466.68 253.712,466.011 255.614,465.185C260.698,462.975 265.094,459.736 269.102,456.028L273.629,451.509L273.161,456.276C272.253,457.694 271.255,459.038 270.174,460.307C268.901,461.66 267.594,462.985 266.246,464.258C262.685,467.332 258.54,469.715 254.047,471.27C253.613,471.42 253.179,471.573 252.739,471.706C250.516,472.384 248.235,472.851 245.931,473.101L239.625,473.224C237.448,473.065 232.504,471.875 232.612,475.672C232.68,478.02 235.248,478.834 237.676,479.131C238.938,479.285 240.162,479.299 240.978,479.315C241.846,479.333 242.711,479.309 243.574,479.246C246.034,479.064 248.466,478.559 250.821,477.812C251.972,477.447 253.105,477.025 254.214,476.552C257.804,475.018 261.06,472.957 264.085,470.58C265.6,469.39 267.059,468.121 268.47,466.795C269.991,465.48 271.419,464.057 272.73,462.531L272.505,466.698C272.501,466.698 272.501,466.698 272.501,466.702C271.461,468.439 270.272,470.068 268.971,471.59L265.047,475.541C263.569,476.818 261.989,477.977 260.326,479.007C257.598,480.699 254.645,482.044 251.536,482.99C250.554,483.289 249.56,483.544 248.56,483.761C247.162,484.066 245.748,484.285 244.326,484.422C242.368,484.613 240.394,484.651 238.422,484.507C236.25,484.348 231.306,483.159 231.414,486.955C231.517,490.523 237.388,490.551 239.78,490.598C244.331,490.697 248.844,489.62 253.011,487.835C254.716,487.107 256.346,486.259 257.912,485.316C259.711,484.232 261.425,483.021 263.071,481.716C264.519,480.568 265.915,479.349 267.267,478.079L272.065,473.233C271.944,474.684 271.808,476.14 271.63,477.587L267.772,482.873C266.499,484.226 265.192,485.551 263.844,486.83C262.656,487.855 261.397,488.794 260.088,489.663C258.532,490.695 256.898,491.611 255.198,492.402C253.627,493.132 252.007,493.765 250.337,494.273L246.853,495.151C244.499,495.628 242.103,495.872 239.701,495.871L236.354,495.701C234.555,495.491 231.948,495.139 230.797,496.388C230.553,496.653 230.377,496.992 230.286,497.416C230.233,497.661 230.206,497.932 230.215,498.239C230.313,501.806 236.189,501.834 238.577,501.886C242.481,501.966 246.357,501.183 250.014,499.833C250.619,499.61 251.219,499.372 251.812,499.119C253.838,498.254 255.75,497.209 257.582,496.045C257.944,495.816 258.307,495.589 258.662,495.35C258.421,495.706 258.193,496.072 257.962,496.435C256.84,498.205 255.828,500.053 254.981,502.002C254.705,502.639 254.451,503.288 254.209,503.94C252.911,507.437 252.125,511.142 252.121,514.882C252.121,517.345 252.065,523.699 255.777,523.801L257.649,523.185C258.859,522.011 258.497,519.424 258.314,517.736L258.144,514.314C258.143,511.871 258.399,509.436 258.894,507.043L259.607,504.152C260.142,502.311 260.821,500.525 261.623,498.803C262.414,497.105 263.334,495.474 264.365,493.919C265.207,492.65 266.117,491.426 267.107,490.27C268.418,488.875 269.781,487.532 271.171,486.22L276.429,482.386C277.875,482.208 279.332,482.073 280.783,481.951L275.961,486.721C274.684,488.08 273.459,489.481 272.306,490.935C271.002,492.58 269.791,494.292 268.707,496.09C267.798,497.598 266.977,499.164 266.265,500.799C264.504,504.854 263.409,509.246 263.404,513.679C263.404,516.142 263.348,522.495 267.061,522.603C270.652,522.705 269.743,518.235 269.551,516.08C269.366,513.975 269.386,511.865 269.584,509.771C269.727,508.268 269.968,506.776 270.296,505.3C270.472,504.512 270.664,503.726 270.89,502.949C271.846,499.66 273.249,496.54 275.032,493.668C276.036,492.051 277.157,490.511 278.395,489.067L282.455,485.017C283.971,483.73 285.586,482.55 287.314,481.515C287.319,481.515 287.319,481.515 287.319,481.51L291.486,481.286C289.969,482.592 288.55,484.01 287.244,485.523C285.915,486.936 284.642,488.397 283.448,489.915C281.11,492.887 279.079,496.083 277.548,499.601C277.039,500.772 276.594,501.973 276.207,503.195C275.465,505.531 274.966,507.945 274.778,510.386C274.725,511.083 274.688,511.781 274.687,512.481C274.687,513.393 274.68,514.841 274.859,516.306C275.164,518.795 276.007,521.336 278.344,521.404C281.935,521.507 281.026,517.036 280.834,514.882L280.915,508.085C281.147,505.946 281.569,503.826 282.173,501.75C282.346,501.155 282.537,500.567 282.739,499.983C284.278,495.524 286.64,491.408 289.678,487.864C290.985,486.473 292.347,485.129 293.737,483.819C294.997,482.746 296.336,481.754 297.74,480.855L302.506,480.387C302.502,480.387 302.497,480.392 302.497,480.396C300.863,481.787 299.351,483.308 297.975,484.933C294.276,488.936 291.041,493.328 288.831,498.403C288.005,500.303 287.332,502.282 286.843,504.302C286.29,506.587 285.973,508.927 285.97,511.282L285.97,511.675C285.97,513.409 286.004,516.238 286.907,518.158C287.415,519.236 288.197,520.027 289.402,520.173C292.938,520.6 292.384,516.344 292.16,514.179C292.159,514.163 292.157,514.145 292.155,514.128C291.911,511.782 291.91,509.421 292.13,507.08C292.33,504.968 292.708,502.874 293.274,500.823C293.884,498.616 294.708,496.496 295.706,494.474C296.504,492.859 297.418,491.31 298.443,489.839C299.028,489 299.638,488.181 300.292,487.396L304.627,483.033C305.559,482.239 306.537,481.495 307.553,480.794L309.655,479.409L314.403,478.566L312.859,479.958L308.582,484.461C305.166,488.28 302.183,492.447 300.119,497.2C298.559,500.782 297.525,504.627 297.302,508.533C297.272,509.047 297.254,509.563 297.253,510.079C297.253,511.458 297.236,514.058 297.873,516.097C298.374,517.699 299.277,518.955 300.91,519.002C301.122,519.008 301.316,518.997 301.497,518.973C303.177,518.748 303.609,517.286 303.641,515.7C303.664,514.548 303.477,513.333 303.401,512.481C303.287,511.182 303.257,509.882 303.29,508.585C303.372,505.463 303.863,502.359 304.74,499.348C305.281,497.493 305.966,495.692 306.777,493.956C307.658,492.071 308.69,490.263 309.867,488.557C310.605,487.486 311.398,486.454 312.245,485.466L316.472,481.279C317.122,480.734 317.786,480.204 318.476,479.704C318.088,480.287 317.722,480.885 317.374,481.495C316.248,483.459 315.322,485.547 314.585,487.695C313.62,490.522 312.998,493.39 312.609,496.287C311.71,502.968 312.05,509.799 312.275,516.608C312.385,519.944 312.466,523.275 312.361,526.581C312.346,527.047 312.328,527.512 312.305,527.977C311.937,528.487 311.555,528.98 311.162,529.461C306.327,535.39 299.648,539.325 292.27,542.029C288.735,543.324 285.04,544.334 281.311,545.149C274.292,546.682 267.152,547.515 260.731,548.203C258.363,548.456 255.992,548.67 253.619,548.853C252.452,548.942 251.284,549.023 250.117,549.097ZM201.849,499.45C198.689,498.644 195.552,497.762 192.44,496.826C173.555,491.134 155.863,482.016 136.993,476.425C146.383,459.13 152.453,440.174 161.775,422.793C163.311,419.93 164.914,417.092 166.579,414.288C168.98,416.333 171.416,418.337 173.902,420.282C184.239,428.365 196.435,437.331 209.62,440.541C208.315,440.545 207.007,440.489 205.7,440.363C201.028,439.906 196.446,438.645 192.245,436.53C190.197,435.496 184.942,432.117 184.29,436.693C183.799,440.129 189.216,442.267 191.667,443.279C195.747,444.957 200.164,445.68 204.561,445.693C207.57,445.706 210.52,445.359 213.418,444.769C211.014,446.355 208.741,448.144 206.664,450.21C203.618,453.242 201.034,456.763 199.3,460.709C198.201,463.207 195.652,468.913 198.533,471.077C202.003,473.682 203.425,468.273 204.115,466.067C205.525,461.574 207.813,457.413 210.752,453.751C211.678,452.595 212.669,451.5 213.712,450.462C206.998,461.548 204.663,475.705 203.028,488.168C202.537,491.918 202.153,495.68 201.849,499.45ZM131.509,377.008C143.601,367.215 154.088,355.573 165.638,345.116L172.54,339.146C178.161,334.546 184.029,330.176 190.182,326.283C192.07,325.089 193.982,323.936 195.925,322.84C197.807,321.778 199.736,320.784 201.706,319.892C208.322,316.897 215.395,315.066 222.654,315.779C223.268,315.839 223.883,315.916 224.499,316.014C224.84,316.324 225.179,316.638 225.516,316.954C227.93,319.218 230.226,321.628 232.503,324.062C237.161,329.039 241.749,334.109 247.131,338.208C248.922,339.573 250.8,340.832 252.8,341.942C255.364,343.359 258.109,344.528 260.949,345.309C261.608,345.491 262.271,345.658 262.94,345.795L260.281,346.104C258.338,346.164 256.391,346.179 254.448,346.118C253.179,346.017 251.915,345.851 250.662,345.621C248.622,345.246 246.614,344.692 244.655,343.981C243.011,343.384 241.401,342.678 239.845,341.848C236.923,340.29 234.212,338.36 231.818,336.083L226.942,330.787C225.734,329.688 224.369,328.987 223.197,330.013C222.948,330.23 222.708,330.521 222.48,330.907C221.806,332.044 222.049,333.345 222.694,334.609C223.647,336.477 225.481,338.264 226.54,339.32C226.899,339.678 227.269,340.025 227.646,340.362C230.372,342.796 233.552,344.684 236.924,346.094C241.955,348.2 247.26,349.108 252.64,349.406L258.853,349.57L260.923,349.46L256.971,352.232L254.508,352.733L249.999,353.233C248.151,353.271 246.303,353.26 244.462,353.173C243.529,353.082 242.603,352.943 241.68,352.78C239.89,352.462 238.123,352.009 236.394,351.42C234.285,350.703 232.231,349.796 230.267,348.679C228.405,347.619 226.643,346.398 224.998,345.037C223.191,343.543 221.526,341.878 220.046,340.05C220.036,340.037 220.024,340.022 220.013,340.009C218.621,338.288 215.579,334.716 213.651,338.037C213.128,338.937 213.165,339.922 213.508,340.902C214.208,342.9 216.187,344.881 217.349,346.09C217.372,346.114 217.397,346.135 217.42,346.159C219.147,347.94 221.122,349.462 223.24,350.751C224.732,351.659 226.292,352.456 227.893,353.136C233.272,355.425 238.951,356.333 244.696,356.567C246.863,356.755 249.045,356.764 251.227,356.591L247.528,359.625C245.908,359.985 244.27,360.229 242.626,360.365C240.684,360.426 238.736,360.435 236.793,360.374C232.168,360.011 227.622,358.77 223.405,356.716C222.999,356.518 222.591,356.322 222.19,356.109C220.131,355.012 218.182,353.725 216.37,352.267L211.83,347.897C210.415,346.254 207.049,341.403 204.826,345.167C203.808,346.883 204.877,348.972 206.269,350.743C207.163,351.881 208.19,352.888 208.885,353.58C209.369,354.063 209.877,354.52 210.395,354.965C212.258,356.567 214.317,357.929 216.499,359.06C217.404,359.53 218.329,359.961 219.269,360.355C223.061,361.939 227.011,362.845 231.029,363.323C232.915,363.548 234.816,363.679 236.723,363.74C238.745,363.894 240.782,363.899 242.809,363.745L239.667,366.54C237.729,367.022 235.768,367.335 233.796,367.495L227.968,367.504C226.091,367.357 224.226,367.064 222.39,366.633C219.267,365.9 216.228,364.764 213.365,363.239C212.492,362.774 211.641,362.27 210.808,361.739C209.54,360.931 208.326,360.046 207.168,359.089C205.673,357.853 204.271,356.502 202.999,355.027C201.586,353.384 198.224,348.534 195.996,352.298C194.329,355.116 198.28,358.941 200.055,360.711C203.014,363.651 206.604,365.88 210.439,367.481C212.335,368.274 214.271,368.894 216.235,369.38C218.272,369.883 220.34,370.24 222.427,370.48C224.238,370.688 226.062,370.811 227.893,370.871L234.761,370.842C233.642,371.788 232.514,372.72 231.362,373.619L224.971,374.621C223.028,374.686 221.081,374.696 219.138,374.635C217.638,374.517 216.148,374.296 214.673,373.997C212.847,373.627 211.048,373.12 209.29,372.478C207.665,371.886 206.074,371.188 204.535,370.37C201.351,368.67 198.417,366.521 195.869,363.968L193.57,361.428C192.472,360.088 190.819,358.13 189.26,358.033C188.843,358.007 188.433,358.114 188.042,358.402C187.738,358.626 187.445,358.958 187.17,359.423C185.499,362.246 189.455,366.072 191.229,367.841C193.878,370.477 197.043,372.536 200.432,374.089C200.824,374.268 201.216,374.445 201.614,374.611C203.823,375.538 206.089,376.224 208.389,376.736C208.818,376.832 209.249,376.924 209.681,377.008C209.247,377.092 208.814,377.184 208.382,377.28C206.155,377.774 203.96,378.434 201.815,379.317C201.316,379.522 200.822,379.739 200.332,379.965C197.134,381.444 194.14,383.375 191.59,385.82C189.727,387.603 185.438,391.663 187.17,394.593C187.452,395.069 187.753,395.399 188.067,395.62C188.427,395.871 188.803,395.973 189.186,395.96C190.823,395.906 192.575,393.788 193.617,392.527L195.867,390.048C197.565,388.347 199.434,386.828 201.436,385.501L204.104,383.886C205.773,382.968 207.504,382.19 209.277,381.542C211.039,380.899 212.843,380.395 214.673,380.024C216.133,379.728 217.607,379.51 219.091,379.391C221.071,379.326 223.061,379.34 225.051,379.401L231.362,380.398C232.514,381.296 233.642,382.228 234.761,383.174L227.926,383.141C226.077,383.2 224.233,383.324 222.404,383.535C220.318,383.776 218.25,384.133 216.213,384.638C214.328,385.105 212.468,385.697 210.645,386.447C206.89,387.992 203.36,390.131 200.42,392.95C198.557,394.734 194.263,398.792 195.996,401.719C198.088,405.253 201.281,401.039 202.686,399.364C204.061,397.722 205.589,396.225 207.235,394.871C208.348,393.955 209.519,393.11 210.735,392.331C211.454,391.871 212.184,391.427 212.935,391.016C215.923,389.372 219.107,388.163 222.385,387.394C224.206,386.966 226.054,386.67 227.916,386.522L233.876,386.531C235.819,386.69 237.757,386.999 239.667,387.477C239.677,387.482 239.686,387.482 239.695,387.482L242.809,390.272C240.791,390.121 238.769,390.121 236.755,390.272C234.829,390.332 232.908,390.466 231.002,390.694C227.065,391.165 223.193,392.047 219.47,393.578C218.462,393.992 217.472,394.454 216.504,394.955C214.315,396.089 212.244,397.447 210.374,399.052C209.989,399.383 209.612,399.724 209.245,400.076C208.458,400.831 207.239,401.993 206.223,403.301C204.834,405.092 203.825,407.16 204.826,408.849C206.914,412.379 210.111,408.17 211.511,406.495L216.376,401.743C218.059,400.39 219.862,399.186 221.76,398.142C222.296,397.848 222.84,397.571 223.388,397.304C227.593,395.257 232.132,394.02 236.746,393.648C238.727,393.586 240.716,393.596 242.706,393.662C244.321,393.792 245.932,394.036 247.533,394.392L251.227,397.425C250.183,397.341 249.134,397.299 248.09,397.299C246.961,397.299 245.833,397.351 244.709,397.445C238.956,397.683 233.272,398.586 227.893,400.88C226.297,401.56 224.743,402.354 223.256,403.258C221.134,404.548 219.154,406.072 217.421,407.857C217.398,407.881 217.373,407.903 217.349,407.927C216.2,409.121 214.211,411.113 213.508,413.117C213.163,414.099 213.125,415.084 213.651,415.98C215.592,419.291 218.597,415.757 220.011,414.009C220.023,413.996 220.035,413.98 220.046,413.966C221.52,412.144 223.182,410.479 224.985,408.985C226.634,407.618 228.401,406.393 230.267,405.338C232.264,404.209 234.352,403.293 236.494,402.571C238.17,402.005 239.881,401.565 241.614,401.252C242.591,401.076 243.572,400.928 244.56,400.834L250.979,400.801C252.158,400.903 253.336,401.067 254.51,401.283L256.971,401.785L260.923,404.556L258.853,404.447L252.641,404.612C247.335,404.906 242.098,405.794 237.125,407.838C233.685,409.253 230.438,411.171 227.656,413.65C227.402,413.876 227.146,414.1 226.9,414.336C225.755,415.435 223.695,417.393 222.679,419.417C222.041,420.687 221.813,421.982 222.48,423.11C222.709,423.496 222.951,423.785 223.202,423.999C224.364,424.992 225.728,424.291 226.918,423.226L231.822,417.941C234.097,415.777 236.653,413.919 239.415,412.403C241.104,411.475 242.858,410.688 244.654,410.037C246.611,409.326 248.62,408.781 250.658,408.406C251.897,408.178 253.146,408.009 254.401,407.909L260.472,407.933C261.299,408.003 262.123,408.097 262.945,408.222C262.274,408.36 261.609,408.528 260.948,408.709C258.106,409.492 255.36,410.659 252.8,412.075C250.801,413.184 248.924,414.443 247.133,415.806C241.749,419.906 237.161,424.976 232.501,429.955C230.221,432.391 227.922,434.804 225.504,437.07C225.169,437.383 224.833,437.695 224.494,438.002C223.882,438.099 223.271,438.177 222.662,438.238C215.397,438.953 208.311,437.121 201.687,434.118C199.909,433.312 198.165,432.423 196.459,431.476C194.357,430.307 192.29,429.074 190.254,427.788C184.072,423.882 178.186,419.484 172.54,414.87L165.614,408.881C154.071,398.432 143.593,386.794 131.509,377.008ZM162.55,332.656C157.645,323.662 153.333,314.353 149.295,304.941C145.356,295.741 141.721,286.409 136.977,277.584C146.571,274.699 155.741,270.67 165.032,266.951C174.54,263.146 184.174,259.617 194.001,256.726C196.514,255.987 199.141,255.227 201.843,254.494C202.147,258.287 202.534,262.074 203.028,265.849C204.663,278.315 206.999,292.475 213.716,303.562C212.789,302.64 211.902,301.672 211.066,300.655C208.085,297.032 205.749,292.905 204.272,288.449C203.546,286.256 202.707,280.94 199.04,282.588C195.594,284.133 197.944,289.885 198.861,292.24C200.612,296.727 203.493,300.703 206.926,304.059C208.919,306.011 211.093,307.711 213.384,309.229C210.768,308.699 208.101,308.372 205.39,308.326C200.718,308.245 195.98,308.952 191.64,310.745C189.232,311.742 182.998,314.26 184.401,317.932C185.754,321.484 189.753,318.787 191.781,317.727C195.949,315.556 200.495,314.23 205.162,313.718C206.639,313.555 208.118,313.478 209.592,313.481C196.416,316.697 184.228,325.658 173.902,333.735C171.395,335.696 168.939,337.718 166.517,339.781C165.125,337.351 163.805,334.955 162.55,332.656ZM231.741,204.264C237.859,204.338 243.98,204.528 250.088,204.916C251.309,204.994 252.53,205.08 253.75,205.174C256.08,205.355 258.407,205.565 260.731,205.814C267.166,206.503 274.325,207.338 281.359,208.877C285.062,209.688 288.73,210.693 292.241,211.977C299.626,214.679 306.312,218.613 311.152,224.543C311.548,225.029 311.935,225.526 312.305,226.039C312.328,226.504 312.346,226.97 312.361,227.436C312.466,230.743 312.385,234.075 312.275,237.412C312.05,244.221 311.71,251.051 312.609,257.733C312.999,260.628 313.62,263.496 314.585,266.321C315.319,268.461 316.244,270.552 317.369,272.522C317.716,273.129 318.081,273.726 318.467,274.309L316.276,272.571C314.923,271.303 313.598,269.996 312.324,268.648C311.448,267.633 310.629,266.568 309.867,265.463C308.687,263.754 307.656,261.941 306.772,260.049C306.032,258.464 305.39,256.826 304.875,255.137C303.913,251.976 303.365,248.705 303.281,245.41C303.252,244.283 303.276,243.152 303.358,242.023C303.428,241.101 303.681,239.68 303.659,238.357C303.632,236.737 303.192,235.268 301.497,235.044C301.315,235.02 301.122,235.008 300.91,235.014C299.269,235.061 298.378,236.334 297.888,237.925C297.315,239.789 297.293,242.09 297.268,243.381C297.252,244.083 297.269,244.786 297.308,245.485C297.523,249.317 298.525,253.088 300.03,256.611C302.097,261.447 305.115,265.677 308.584,269.553L312.86,274.059L314.403,275.451L309.655,274.608L307.554,273.222L304.01,270.389C302.745,269.173 301.501,267.934 300.315,266.644C299.642,265.836 299.013,264.992 298.413,264.128C297.414,262.688 296.52,261.175 295.738,259.597C294.727,257.559 293.893,255.42 293.274,253.194C292.705,251.144 292.325,249.045 292.126,246.929C291.906,244.589 291.909,242.228 292.155,239.888C292.157,239.871 292.159,239.852 292.161,239.835C292.393,237.643 292.923,233.435 289.402,233.844C288.2,233.984 287.419,234.775 286.911,235.855C286.005,237.779 285.968,240.619 285.97,242.34C285.97,242.478 285.97,242.612 285.97,242.734C285.978,245.094 286.295,247.434 286.848,249.719C287.335,251.737 288.005,253.713 288.831,255.614C291.041,260.699 294.281,265.095 297.989,269.102L302.506,273.63L297.74,273.162C296.322,272.253 294.978,271.256 293.709,270.174C292.356,268.901 291.032,267.595 289.758,266.246C286.684,262.685 284.297,258.54 282.745,254.046C282.595,253.613 282.443,253.18 282.309,252.74C281.632,250.516 281.165,248.235 280.915,245.932L280.792,239.626C280.952,237.449 282.141,232.505 278.344,232.612C275.996,232.68 275.181,235.248 274.885,237.677C274.731,238.938 274.717,240.163 274.701,240.979C274.683,241.846 274.707,242.712 274.771,243.574C274.953,246.035 275.457,248.467 276.204,250.822C276.569,251.973 276.991,253.106 277.463,254.214C278.998,257.804 281.058,261.06 283.436,264.085C284.626,265.601 285.895,267.059 287.221,268.47C288.536,269.992 289.959,271.42 291.486,272.731L287.319,272.506C287.319,272.501 287.319,272.501 287.314,272.501C285.577,271.462 283.948,270.273 282.426,268.971L278.47,265.048C277.195,263.569 276.038,261.989 275.007,260.326C273.317,257.598 271.971,254.645 271.026,251.536C270.727,250.554 270.472,249.56 270.254,248.56C269.951,247.162 269.732,245.748 269.594,244.327C269.404,242.368 269.365,240.394 269.509,238.422C269.668,236.25 270.857,231.306 267.061,231.414C263.493,231.517 263.465,237.388 263.414,239.775C263.32,244.331 264.396,248.844 266.181,253.011C266.909,254.716 267.757,256.346 268.7,257.912C269.784,259.711 270.996,261.426 272.3,263.072C273.448,264.519 274.667,265.914 275.937,267.267L280.783,272.066C279.332,271.944 277.875,271.809 276.429,271.63L271.143,267.772C269.79,266.499 268.465,265.193 267.187,263.845C266.162,262.657 265.222,261.397 264.354,260.089C263.322,258.533 262.405,256.899 261.614,255.198C260.884,253.628 260.251,252.008 259.743,250.338L258.872,246.89C258.39,244.524 258.144,242.116 258.145,239.701L258.322,236.293C258.531,234.514 258.854,231.988 257.663,230.833C257.409,230.587 257.086,230.403 256.679,230.302C256.415,230.237 256.117,230.206 255.777,230.215C252.21,230.318 252.182,236.189 252.13,238.577C252.05,242.481 252.833,246.357 254.183,250.015C254.407,250.62 254.644,251.22 254.897,251.812C255.762,253.838 256.807,255.751 257.971,257.583C258.2,257.944 258.427,258.307 258.666,258.662C258.31,258.422 257.945,258.193 257.582,257.963C255.811,256.84 253.963,255.829 252.013,254.982C251.377,254.705 250.729,254.452 250.077,254.209C246.579,252.911 242.874,252.125 239.134,252.121C236.671,252.121 230.318,252.065 230.215,255.778L230.756,257.57C231.897,258.884 234.585,258.497 236.31,258.311L239.638,258.145C242.063,258.14 244.48,258.385 246.856,258.869L249.864,259.608C251.706,260.142 253.491,260.821 255.212,261.621C256.911,262.412 258.541,263.331 260.095,264.362C261.367,265.205 262.592,266.116 263.75,267.108C265.141,268.419 266.489,269.781 267.796,271.172L271.63,276.429C271.808,277.876 271.944,279.332 272.065,280.784L267.29,275.961C265.934,274.685 264.535,273.462 263.083,272.31C261.437,271.005 259.724,269.793 257.926,268.708C256.418,267.799 254.853,266.977 253.217,266.265C249.162,264.505 244.77,263.409 240.337,263.405C237.874,263.405 231.521,263.349 231.414,267.061C231.311,270.652 235.782,269.744 237.935,269.552C240.041,269.367 242.152,269.386 244.246,269.585C245.748,269.727 247.24,269.968 248.716,270.297C249.504,270.472 250.29,270.664 251.068,270.891C254.356,271.846 257.475,273.249 260.347,275.03C261.964,276.034 263.505,277.155 264.949,278.391L268.999,282.455C270.287,283.972 271.466,285.587 272.501,287.314C272.501,287.319 272.501,287.319 272.505,287.319L272.73,291.486C271.424,289.969 270.005,288.551 268.493,287.244C267.08,285.915 265.619,284.642 264.101,283.449C261.128,281.111 257.933,279.08 254.415,277.548C253.245,277.039 252.042,276.594 250.822,276.207C248.485,275.465 246.071,274.966 243.629,274.779C242.933,274.726 242.235,274.688 241.536,274.688C240.623,274.688 239.175,274.681 237.71,274.86C235.221,275.164 232.68,276.008 232.612,278.344C232.509,281.935 236.98,281.027 239.134,280.835L245.931,280.915C248.071,281.147 250.191,281.57 252.266,282.174C252.861,282.347 253.449,282.538 254.033,282.739C258.491,284.278 262.604,286.64 266.147,289.674C267.543,290.985 268.887,292.348 270.197,293.738C271.27,294.997 272.262,296.336 273.161,297.741L273.629,302.507C273.629,302.502 273.624,302.497 273.62,302.497C272.229,300.859 270.708,299.351 269.083,297.97C265.076,294.276 260.688,291.041 255.614,288.831C253.713,288.005 251.735,287.333 249.714,286.844C247.429,286.29 245.089,285.973 242.734,285.971L242.341,285.971C240.607,285.971 237.778,286.004 235.858,286.908C234.78,287.415 233.989,288.197 233.843,289.403C233.416,292.938 237.672,292.385 239.837,292.161C239.853,292.159 239.871,292.157 239.888,292.156C242.234,291.912 244.595,291.91 246.936,292.131C249.047,292.33 251.142,292.708 253.193,293.274C255.4,293.885 257.52,294.709 259.542,295.706C261.158,296.504 262.706,297.419 264.177,298.444C265.015,299.028 265.835,299.639 266.621,300.292L270.984,304.628C271.777,305.561 272.521,306.539 273.222,307.554L274.607,309.656L275.451,314.403L274.058,312.86L269.555,308.583C265.736,305.166 261.569,302.184 256.817,300.119C253.234,298.559 249.389,297.526 245.483,297.302C244.969,297.273 244.454,297.254 243.937,297.254C242.558,297.254 239.957,297.237 237.917,297.874C236.316,298.374 235.061,299.278 235.014,300.911C235.008,301.122 235.019,301.316 235.043,301.497C235.268,303.177 236.73,303.61 238.317,303.642C239.468,303.664 240.683,303.477 241.536,303.401C242.833,303.287 244.133,303.257 245.43,303.291C248.553,303.372 251.657,303.864 254.668,304.74C256.524,305.281 258.324,305.966 260.059,306.777C261.946,307.659 263.753,308.69 265.459,309.867C266.53,310.605 267.562,311.398 268.549,312.245L272.737,316.473C273.282,317.122 273.812,317.787 274.312,318.476C273.729,318.089 273.131,317.723 272.522,317.374C270.556,316.248 268.469,315.322 266.321,314.586C263.495,313.621 260.626,312.998 257.73,312.609C251.048,311.71 244.217,312.051 237.408,312.275C234.072,312.385 230.741,312.466 227.435,312.361C226.969,312.346 226.504,312.329 226.039,312.306C225.53,311.938 225.037,311.555 224.554,311.162C218.628,306.329 214.694,299.654 211.991,292.28C210.694,288.742 209.682,285.044 208.867,281.311C207.334,274.292 206.501,267.153 205.813,260.731L204.919,250.117C204.53,244 204.341,237.869 204.264,231.742C204.151,222.285 204.353,212.823 203.402,203.403C212.822,204.353 222.284,204.152 231.741,204.264ZM257.191,192.44C262.882,173.556 272,155.863 277.59,136.994C294.886,146.383 313.842,152.453 331.222,161.776C334.086,163.311 336.924,164.914 339.728,166.579C337.683,168.981 335.678,171.417 333.734,173.903C325.652,184.24 316.685,196.435 313.475,209.621C313.471,208.315 313.528,207.007 313.654,205.7C314.11,201.028 315.371,196.446 317.487,192.246C318.52,190.198 321.899,184.942 317.323,184.29C313.886,183.8 311.749,189.217 310.737,191.668C309.059,195.747 308.336,200.164 308.324,204.562C308.31,207.571 308.658,210.52 309.247,213.419C307.661,211.014 305.872,208.741 303.805,206.664C300.774,203.619 297.253,201.034 293.307,199.301C290.808,198.202 285.103,195.653 282.939,198.533C280.333,202.004 285.744,203.426 287.949,204.116C292.442,205.525 296.602,207.813 300.265,210.753C301.421,211.679 302.516,212.669 303.554,213.712C292.467,206.998 278.311,204.664 265.848,203.028C262.098,202.538 258.335,202.153 254.566,201.85C255.372,198.69 256.254,195.552 257.191,192.44ZM342.684,168.372C343.492,167.446 344.309,166.526 345.134,165.615C355.584,154.072 367.221,143.594 377.008,131.509C386.801,143.602 398.443,154.088 408.9,165.639L414.869,172.54C419.47,178.162 423.841,184.029 427.733,190.182C428.927,192.07 430.08,193.982 431.176,195.926C432.238,197.808 433.232,199.737 434.124,201.706C437.119,208.322 438.949,215.394 438.237,222.653C438.178,223.268 438.1,223.883 438.002,224.499C437.691,224.841 437.377,225.181 437.061,225.519C434.797,227.932 432.388,230.227 429.954,232.503C424.977,237.161 419.907,241.749 415.808,247.131C414.443,248.923 413.184,250.8 412.074,252.8C410.657,255.365 409.488,258.11 408.707,260.949C408.525,261.609 408.358,262.272 408.222,262.941L407.912,260.282C407.852,258.339 407.838,256.391 407.898,254.448C407.999,253.179 408.165,251.915 408.395,250.663C408.77,248.622 409.324,246.614 410.035,244.656C410.633,243.012 411.338,241.401 412.168,239.846C413.726,236.924 415.655,234.213 417.932,231.82L423.229,226.943C424.328,225.734 425.029,224.37 424.003,223.197C423.786,222.949 423.495,222.709 423.109,222.481C421.971,221.807 420.67,222.049 419.407,222.693C417.539,223.646 415.752,225.481 414.696,226.54C414.338,226.899 413.991,227.269 413.654,227.646C411.221,230.373 409.332,233.552 407.922,236.924C405.816,241.956 404.908,247.263 404.609,252.641L404.446,258.853L404.556,260.923L401.784,256.972L401.283,254.509L400.783,250C400.745,248.151 400.756,246.303 400.843,244.462C400.934,243.53 401.073,242.603 401.236,241.681C401.554,239.89 402.007,238.123 402.596,236.394C403.313,234.286 404.221,232.231 405.337,230.267C406.397,228.406 407.618,226.644 408.978,224.998C410.474,223.191 412.138,221.527 413.966,220.046C413.979,220.036 413.993,220.024 414.007,220.013C415.728,218.622 419.301,215.579 415.979,213.651C415.079,213.129 414.094,213.165 413.113,213.509C411.115,214.208 409.136,216.188 407.927,217.35C407.902,217.373 407.881,217.397 407.857,217.42C406.076,219.147 404.554,221.122 403.265,223.241C402.357,224.732 401.56,226.292 400.88,227.893C398.591,233.272 397.683,238.952 397.448,244.696C397.262,246.864 397.252,249.045 397.425,251.227L394.392,247.529C394.031,245.909 393.787,244.27 393.651,242.627C393.591,240.684 393.581,238.736 393.643,236.793C394.005,232.169 395.246,227.619 397.3,223.405C397.498,222.998 397.694,222.591 397.907,222.191C399.005,220.132 400.291,218.182 401.749,216.37L406.119,211.83C407.763,210.416 412.613,207.05 408.849,204.826C407.133,203.809 405.045,204.877 403.273,206.269C402.136,207.164 401.128,208.191 400.436,208.885C399.952,209.37 399.496,209.877 399.052,210.394C397.449,212.258 396.087,214.317 394.956,216.499C394.486,217.405 394.055,218.33 393.661,219.269C392.077,223.061 391.171,227.01 390.692,231.029C390.469,232.914 390.337,234.815 390.276,236.723C390.122,238.746 390.117,240.782 390.271,242.809L387.477,239.668C386.994,237.729 386.681,235.768 386.521,233.797L386.512,227.968C386.659,226.091 386.952,224.226 387.383,222.39C388.116,219.267 389.253,216.228 390.777,213.366C391.242,212.493 391.746,211.642 392.277,210.809C393.085,209.541 393.971,208.326 394.927,207.169C396.163,205.673 397.514,204.272 398.988,203C400.633,201.586 405.482,198.225 401.719,195.996C398.9,194.33 395.075,198.281 393.306,200.055C390.365,203.014 388.137,206.605 386.535,210.439C385.742,212.335 385.122,214.271 384.637,216.235C384.133,218.273 383.776,220.341 383.536,222.427C383.328,224.238 383.204,226.063 383.145,227.893L383.174,234.761C382.228,233.643 381.297,232.514 380.397,231.362L379.395,224.972C379.33,223.029 379.32,221.081 379.382,219.138C379.499,217.639 379.72,216.149 380.02,214.674C380.39,212.848 380.895,211.048 381.538,209.29C382.131,207.666 382.828,206.075 383.646,204.536L385.495,201.444C386.834,199.421 388.372,197.536 390.094,195.824L392.566,193.589C393.935,192.467 395.968,190.756 395.983,189.159C395.987,188.802 395.89,188.451 395.661,188.113C395.437,187.784 395.094,187.467 394.593,187.171C391.77,185.499 387.944,189.456 386.175,191.23C383.539,193.878 381.479,197.043 379.928,200.432C379.748,200.824 379.571,201.217 379.405,201.614C378.478,203.823 377.792,206.089 377.28,208.389C377.184,208.819 377.092,209.249 377.008,209.681C376.924,209.247 376.832,208.814 376.736,208.382C376.242,206.155 375.582,203.96 374.7,201.815C374.495,201.317 374.277,200.823 374.051,200.333C372.573,197.134 370.641,194.14 368.197,191.591C366.413,189.727 362.354,185.439 359.423,187.171C358.915,187.471 358.572,187.795 358.354,188.133C358.126,188.485 358.039,188.853 358.059,189.227C358.144,190.831 360.186,192.54 361.441,193.578L363.966,195.866C365.675,197.572 367.201,199.45 368.531,201.463L370.13,204.105C371.047,205.773 371.826,207.505 372.474,209.277C373.117,211.039 373.622,212.843 373.993,214.673C374.288,216.133 374.506,217.608 374.625,219.091C374.69,221.072 374.676,223.061 374.616,225.051L373.618,231.362C372.719,232.514 371.788,233.643 370.842,234.761L370.874,227.926C370.816,226.077 370.693,224.234 370.481,222.404C370.241,220.318 369.883,218.251 369.378,216.213C368.911,214.328 368.319,212.468 367.569,210.645C366.024,206.891 363.885,203.356 361.066,200.42C359.283,198.557 355.224,194.264 352.297,195.996C348.763,198.089 352.976,201.282 354.652,202.686C356.294,204.062 357.791,205.589 359.145,207.235C360.061,208.349 360.906,209.519 361.685,210.735C362.145,211.455 362.589,212.185 363,212.935C364.644,215.924 365.853,219.108 366.623,222.386C367.05,224.206 367.346,226.055 367.494,227.916L367.485,233.876C367.326,235.819 367.017,237.758 366.54,239.668C366.535,239.677 366.535,239.686 366.535,239.696L363.744,242.809C363.894,240.791 363.894,238.769 363.744,236.756C363.684,234.829 363.55,232.908 363.322,231.003C362.851,227.065 361.969,223.193 360.439,219.471C360.024,218.462 359.563,217.473 359.061,216.504C357.926,214.315 356.569,212.243 354.963,210.373C354.633,209.989 354.292,209.613 353.941,209.246C353.185,208.458 352.024,207.239 350.714,206.223C348.924,204.834 346.857,203.826 345.167,204.826C341.637,206.914 345.846,210.107 347.522,211.512L352.273,216.376C353.626,218.059 354.831,219.862 355.874,221.76C356.168,222.296 356.446,222.84 356.712,223.388C358.759,227.593 359.996,232.132 360.369,236.747C360.43,238.727 360.42,240.717 360.354,242.706C360.224,244.322 359.98,245.932 359.624,247.533L356.591,251.227C356.675,250.183 356.717,249.135 356.717,248.09C356.717,246.962 356.665,245.834 356.572,244.71C356.333,238.956 355.43,233.272 353.135,227.893C352.456,226.297 351.662,224.744 350.758,223.257C349.467,221.134 347.944,219.155 346.159,217.421C346.135,217.398 346.113,217.373 346.089,217.35C344.895,216.2 342.903,214.211 340.899,213.508C339.916,213.163 338.932,213.126 338.037,213.651C334.725,215.597 338.259,218.597 340.007,220.012C340.021,220.023 340.036,220.036 340.05,220.046C341.872,221.521 343.537,223.182 345.032,224.985C346.398,226.634 347.623,228.402 348.678,230.267C349.807,232.264 350.722,234.352 351.445,236.493C352.011,238.171 352.452,239.882 352.764,241.616C352.94,242.592 353.087,243.573 353.182,244.56L353.215,250.979C353.113,252.158 352.95,253.337 352.733,254.51L352.232,256.967L349.46,260.923L349.57,258.854L349.405,252.642C349.111,247.336 348.222,242.098 346.178,237.126C344.763,233.685 342.845,230.439 340.366,227.657C340.14,227.403 339.916,227.147 339.68,226.901C338.581,225.755 336.623,223.695 334.598,222.679C333.329,222.042 332.034,221.813 330.906,222.481C330.52,222.709 330.231,222.952 330.017,223.203C329.025,224.365 329.724,225.727 330.79,226.918L336.075,231.823C338.239,234.098 340.097,236.653 341.613,239.415C342.54,241.102 343.325,242.852 343.977,244.645C344.688,246.605 345.235,248.617 345.61,250.659C345.838,251.897 346.007,253.146 346.108,254.401L346.082,260.473C346.013,261.3 345.919,262.123 345.794,262.946C345.656,262.275 345.489,261.61 345.307,260.949C344.524,258.106 343.358,255.36 341.941,252.8C340.832,250.801 339.574,248.924 338.21,247.134C334.11,241.75 329.04,237.162 324.062,232.502C321.625,230.221 319.212,227.922 316.946,225.504C316.632,225.17 316.321,224.833 316.013,224.494C315.916,223.882 315.839,223.271 315.779,222.662C315.063,215.398 316.896,208.312 319.898,201.687C320.704,199.91 321.592,198.165 322.54,196.459C323.709,194.358 324.942,192.29 326.229,190.254C330.135,184.073 334.533,178.185 339.146,172.54C340.3,171.129 341.485,169.744 342.684,168.372ZM421.36,162.551C430.353,157.646 439.663,153.334 449.075,149.296C458.275,145.356 467.607,141.722 476.432,136.977C479.317,146.572 483.346,155.741 487.065,165.032C490.87,174.541 494.399,184.174 497.29,194.002C498.029,196.514 498.789,199.141 499.522,201.843C495.728,202.148 491.942,202.534 488.168,203.028C475.702,204.664 461.543,206.998 450.456,213.716C451.378,212.789 452.345,211.902 453.361,211.066C456.984,208.085 461.111,205.749 465.567,204.273C467.761,203.547 473.075,202.707 471.428,199.041C469.887,195.593 464.132,197.945 461.776,198.861C457.289,200.613 453.312,203.493 449.957,206.926C448.005,208.92 446.305,211.094 444.787,213.385C445.317,210.768 445.645,208.102 445.69,205.39C445.771,200.718 445.064,195.981 443.271,191.64C442.274,189.232 439.756,182.998 436.085,184.401C432.532,185.755 435.229,189.753 436.289,191.781C438.46,195.949 439.785,200.495 440.298,205.163C440.461,206.639 440.538,208.118 440.535,209.593C437.319,196.417 428.358,184.229 420.281,173.903C418.32,171.396 416.298,168.939 414.236,166.518C416.666,165.125 419.061,163.805 421.36,162.551ZM486.167,342.958C485.46,342.976 484.751,342.966 484.038,342.915C481.786,342.756 479.6,342.246 477.441,341.614C475.189,340.692 472.783,339.998 470.34,339.437C469.801,339.287 469.263,339.146 468.72,339.02C469.047,338.487 469.37,337.953 469.675,337.405C470.906,335.429 472.024,333.388 472.919,331.309C473.753,329.769 474.633,328.257 475.672,326.843C476.454,325.776 477.33,324.803 478.272,323.91C479.407,322.835 480.644,321.882 481.958,321.041C484.616,319.341 487.582,318.094 490.626,317.231C494.82,316.043 499.094,315.564 503.404,315.422C510.505,315.187 517.703,315.865 524.803,315.789C519.718,320.768 515.117,326.338 509.925,331.197C507.31,333.644 504.548,335.913 501.492,337.831C498.209,339.89 494.591,341.55 490.804,342.384C489.282,342.719 487.732,342.919 486.167,342.958ZM487.967,403.591C488.687,402.234 489.254,400.717 489.638,399.017C490.561,394.915 490.101,390.888 488.622,387.266C486.948,383.166 483.966,379.586 480.199,377.008C483.967,374.43 486.949,370.85 488.624,366.748C490.102,363.128 490.56,359.102 489.638,354.999C489.254,353.3 488.687,351.783 487.967,350.425C489.515,351.492 491.03,352.601 492.523,353.74L496.821,357.165L502.892,362.476C503.59,363.119 504.281,363.77 504.969,364.426C509.411,368.662 513.676,373.1 518.402,377.008C513.679,380.913 509.417,385.348 504.978,389.58L501.452,392.847L496.32,397.265C495.073,398.291 493.809,399.296 492.524,400.276C491.031,401.414 489.515,402.524 487.967,403.591ZM476.206,427.848C474.936,426.246 473.897,424.51 472.924,422.726C472.039,420.652 470.925,418.624 469.703,416.654C469.389,416.092 469.061,415.539 468.725,414.996C469.263,414.87 469.801,414.73 470.335,414.58C472.783,414.018 475.194,413.325 477.446,412.398C479.604,411.771 481.786,411.26 484.038,411.101C484.75,411.05 485.459,411.04 486.165,411.058C487.728,411.097 489.276,411.297 490.796,411.631C494.587,412.465 498.207,414.125 501.492,416.185C504.55,418.104 507.314,420.376 509.931,422.826C515.123,427.685 519.723,433.253 524.803,438.227C517.705,438.152 510.511,438.829 503.412,438.595C499.1,438.453 494.823,437.974 490.626,436.786C487.575,435.92 484.608,434.678 481.951,432.974C480.639,432.132 479.402,431.176 478.27,430.098C477.536,429.4 476.845,428.653 476.206,427.848ZM441.106,472.199C444.66,469.951 447.177,466.771 448.683,463.155C450.383,459.073 450.796,454.436 449.96,449.96C454.445,450.798 459.091,450.382 463.179,448.673C466.783,447.165 469.954,444.652 472.198,441.107C473.135,439.622 473.809,438.138 474.263,436.655C474.603,438.509 474.893,440.371 475.144,442.238L475.762,447.698L476.3,455.77C476.338,456.715 476.366,457.661 476.389,458.607C476.535,464.738 476.416,470.884 476.992,476.993C470.88,476.416 464.729,476.536 458.595,476.389L453.801,476.205L447.059,475.702C445.447,475.544 443.84,475.36 442.235,475.143C440.371,474.892 438.511,474.604 436.658,474.263C438.138,473.809 439.622,473.135 441.106,472.199ZM448.672,290.838C447.165,287.233 444.651,284.062 441.106,281.818C439.622,280.882 438.138,280.207 436.654,279.753C438.509,279.412 440.37,279.124 442.237,278.872L447.697,278.255L455.77,277.717C456.715,277.678 457.66,277.65 458.606,277.627C464.737,277.481 470.884,277.6 476.992,277.024C476.416,283.136 476.535,289.287 476.389,295.421L476.204,300.216L475.7,306.957C475.544,308.569 475.359,310.177 475.143,311.781C474.892,313.645 474.603,315.505 474.263,317.357C473.809,315.878 473.135,314.394 472.198,312.91C469.95,309.356 466.77,306.84 463.154,305.333C459.072,303.633 454.436,303.22 449.96,304.057C450.798,299.571 450.382,294.925 448.672,290.838ZM411.058,267.851C411.098,266.287 411.297,264.74 411.631,263.22C412.465,259.43 414.125,255.809 416.186,252.524C418.103,249.466 420.376,246.702 422.825,244.085C427.685,238.894 433.253,234.293 438.228,229.213C438.151,236.31 438.828,243.506 438.595,250.603C438.452,254.916 437.974,259.193 436.785,263.391C435.92,266.441 434.678,269.408 432.974,272.065C432.132,273.377 431.177,274.613 430.098,275.746C429.399,276.479 428.652,277.172 427.848,277.81C426.246,279.08 424.51,280.119 422.726,281.092C420.651,281.977 418.624,283.091 416.648,284.313C416.092,284.627 415.539,284.955 414.996,285.292C414.869,284.753 414.729,284.215 414.579,283.682C414.018,281.233 413.324,278.822 412.397,276.57C411.77,274.412 411.26,272.23 411.101,269.978C411.051,269.266 411.04,268.557 411.058,267.851ZM350.425,266.05C351.491,264.502 352.601,262.986 353.74,261.493L357.165,257.195L362.476,251.124C363.119,250.426 363.77,249.735 364.426,249.047C368.662,244.605 373.1,240.341 377.008,235.614C380.913,240.337 385.348,244.599 389.58,249.037L392.845,252.562L397.266,257.695C398.292,258.943 399.296,260.208 400.275,261.492C401.414,262.985 402.523,264.501 403.591,266.05C402.233,265.329 400.717,264.762 399.018,264.378C394.915,263.456 390.888,263.915 387.267,265.394C383.166,267.068 379.586,270.051 377.008,273.817C374.429,270.05 370.849,267.067 366.748,265.392C363.128,263.914 359.102,263.456 354.999,264.378C353.299,264.762 351.782,265.329 350.425,266.05ZM321.041,272.059C319.34,269.4 318.093,266.434 317.231,263.391C316.042,259.196 315.564,254.922 315.421,250.612C315.186,243.512 315.865,236.313 315.789,229.213C320.768,234.299 326.337,238.898 331.197,244.091C333.644,246.706 335.913,249.468 337.831,252.524C339.889,255.807 341.549,259.425 342.383,263.213C342.719,264.734 342.918,266.283 342.958,267.85C342.976,268.556 342.965,269.266 342.915,269.978C342.756,272.23 342.246,274.412 341.613,276.575C340.691,278.827 339.999,281.233 339.436,283.677C339.287,284.215 339.146,284.753 339.02,285.297C338.486,284.969 337.953,284.646 337.405,284.342C335.429,283.11 333.388,281.991 331.309,281.097C329.769,280.264 328.256,279.379 326.843,278.344C325.775,277.562 324.803,276.686 323.909,275.743C322.835,274.609 321.882,273.372 321.041,272.059ZM277.627,458.595L277.812,453.801L278.315,447.059C278.472,445.448 278.657,443.839 278.873,442.236C279.124,440.371 279.412,438.511 279.753,436.659C280.207,438.138 280.881,439.622 281.817,441.107C284.065,444.661 287.246,447.176 290.861,448.683C294.943,450.383 299.58,450.796 304.056,449.96C303.218,454.446 303.634,459.091 305.343,463.178C306.851,466.784 309.364,469.955 312.909,472.199C314.394,473.135 315.877,473.809 317.362,474.263C315.507,474.604 313.645,474.893 311.779,475.144L306.318,475.762L298.246,476.299C297.301,476.338 296.355,476.367 295.409,476.389C289.279,476.536 283.132,476.416 277.023,476.993C277.6,470.88 277.48,464.73 277.627,458.595ZM267.849,411.058C268.556,411.04 269.265,411.05 269.978,411.101C272.229,411.26 274.411,411.771 276.574,412.403C278.826,413.325 281.232,414.018 283.681,414.58C284.215,414.73 284.753,414.87 285.296,414.996C284.968,415.53 284.645,416.064 284.341,416.612C283.11,418.587 281.991,420.628 281.097,422.707C280.263,424.247 279.378,425.76 278.344,427.173C277.561,428.241 276.686,429.213 275.743,430.107C274.609,431.181 273.372,432.134 272.058,432.975C269.4,434.676 266.434,435.923 263.39,436.786C259.196,437.974 254.921,438.453 250.612,438.594C243.511,438.83 236.313,438.152 229.213,438.227C234.298,433.248 238.898,427.679 244.091,422.82C246.706,420.372 249.468,418.103 252.524,416.185C255.807,414.127 259.425,412.467 263.212,411.633C264.734,411.297 266.283,411.098 267.849,411.058ZM266.049,350.425C265.329,351.783 264.762,353.3 264.378,354.999C263.456,359.101 263.915,363.128 265.394,366.75C267.068,370.851 270.05,374.43 273.816,377.008C270.049,379.587 267.066,383.166 265.392,387.268C263.915,390.888 263.456,394.914 264.378,399.017C264.762,400.717 265.329,402.234 266.049,403.591C264.501,402.525 262.986,401.415 261.493,400.277L257.194,396.852L251.124,391.54C250.425,390.897 249.734,390.246 249.047,389.59C244.605,385.354 240.34,380.916 235.613,377.008C240.337,373.103 244.598,368.669 249.037,364.436L252.561,361.171L257.695,356.751C258.942,355.725 260.207,354.721 261.492,353.741C262.985,352.602 264.501,351.492 266.049,350.425ZM277.81,326.169C279.079,327.77 280.118,329.507 281.092,331.29C281.977,333.365 283.091,335.392 284.313,337.368C284.627,337.925 284.955,338.477 285.291,339.02C284.753,339.146 284.215,339.287 283.681,339.437C281.232,339.998 278.821,340.692 276.569,341.619C274.411,342.246 272.229,342.756 269.978,342.915C269.266,342.966 268.557,342.976 267.851,342.958C266.287,342.919 264.74,342.72 263.22,342.385C259.429,341.552 255.809,339.891 252.524,337.831C249.466,335.913 246.702,333.64 244.085,331.191C238.893,326.332 234.293,320.764 229.213,315.789C236.31,315.865 243.505,315.187 250.603,315.421C254.916,315.564 259.193,316.042 263.39,317.231C266.441,318.096 269.408,319.339 272.064,321.042C273.377,321.885 274.613,322.84 275.746,323.919C276.479,324.617 277.171,325.364 277.81,326.169ZM304.056,304.057C299.57,303.218 294.925,303.634 290.837,305.344C287.233,306.851 284.062,309.364 281.817,312.91C280.881,314.394 280.207,315.878 279.753,317.362C279.412,315.508 279.124,313.645 278.872,311.779L278.254,306.319L277.716,298.246C277.678,297.301 277.649,296.356 277.627,295.41C277.48,289.279 277.6,283.132 277.023,277.024C283.136,277.6 289.286,277.481 295.421,277.628L300.215,277.812L306.957,278.315C308.569,278.472 310.177,278.657 311.78,278.873C313.645,279.124 315.505,279.413 317.357,279.753C315.877,280.207 314.394,280.882 312.909,281.818C309.355,284.065 306.839,287.246 305.333,290.862C303.633,294.943 303.22,299.58 304.056,304.057ZM342.958,486.165C342.918,487.729 342.719,489.277 342.385,490.796C341.551,494.587 339.891,498.207 337.831,501.493C335.912,504.55 333.64,507.315 331.191,509.931C326.332,515.123 320.763,519.723 315.789,524.803C315.864,517.705 315.187,510.511 315.421,503.413C315.563,499.1 316.041,494.824 317.231,490.626C318.096,487.576 319.338,484.609 321.042,481.952C321.884,480.639 322.839,479.403 323.918,478.27C324.617,477.537 325.363,476.845 326.168,476.206C327.77,474.937 329.506,473.898 331.29,472.924C333.364,472.039 335.392,470.925 337.367,469.704C337.924,469.389 338.477,469.062 339.02,468.725C339.146,469.263 339.287,469.801 339.436,470.335C339.999,472.784 340.691,475.195 341.618,477.447C342.246,479.605 342.756,481.787 342.915,484.038C342.965,484.75 342.976,485.459 342.958,486.165ZM403.591,487.967C402.524,489.515 401.415,491.031 400.276,492.524L396.852,496.822L391.54,502.892C390.897,503.59 390.245,504.282 389.59,504.969C385.354,509.412 380.916,513.675 377.008,518.403C373.103,513.679 368.668,509.417 364.436,504.98L361.171,501.455L356.75,496.321C355.724,495.074 354.72,493.809 353.741,492.525C352.602,491.032 351.492,489.515 350.425,487.967C351.782,488.688 353.299,489.254 354.999,489.638C359.101,490.56 363.128,490.101 366.75,488.622C370.85,486.948 374.43,483.966 377.008,480.2C379.587,483.967 383.166,486.95 387.268,488.624C390.888,490.102 394.914,490.56 399.018,489.638C400.717,489.254 402.233,488.688 403.591,487.967ZM432.975,481.958C434.676,484.617 435.923,487.582 436.785,490.626C437.974,494.821 438.452,499.094 438.595,503.405C438.829,510.505 438.151,517.703 438.228,524.803C433.248,519.718 427.679,515.119 422.819,509.925C420.372,507.31 418.103,504.548 416.186,501.493C414.127,498.209 412.467,494.591 411.632,490.804C411.297,489.283 411.098,487.733 411.058,486.167C411.04,485.46 411.051,484.751 411.101,484.038C411.26,481.787 411.77,479.605 412.402,477.442C413.324,475.19 414.018,472.784 414.579,470.34C414.729,469.801 414.869,469.263 414.996,468.72C415.529,469.047 416.063,469.371 416.611,469.675C418.587,470.907 420.628,472.025 422.707,472.919C424.247,473.753 425.76,474.638 427.173,475.672C428.24,476.455 429.213,477.33 430.106,478.273C431.181,479.407 432.134,480.644 432.975,481.958ZM424.406,470.031C422.398,468.94 420.348,467.919 418.362,466.787C417.533,466.262 416.714,465.723 415.914,465.18C415.75,465.073 415.591,465.007 415.432,464.96C415.184,464.79 414.94,464.621 414.697,464.442C413.865,464.801 413.029,465.152 412.185,465.488C412.139,465.778 412.086,466.065 412.032,466.356C411.953,466.496 411.888,466.656 411.85,466.847C411.677,467.75 411.489,468.663 411.283,469.577C410.66,471.871 409.897,474.132 409.228,476.413C407.374,480.878 404.415,484.596 399.092,486.113C390.566,488.542 382.401,483.514 378.474,476.061C377.893,474.956 376.123,474.956 375.542,476.061C371.614,483.51 363.445,488.542 354.924,486.113C349.568,484.586 346.609,480.831 344.755,476.332C344.095,474.095 343.351,471.875 342.742,469.623L341.831,465.488C340.987,465.152 340.15,464.801 339.318,464.442L335.743,466.73C333.668,467.914 331.52,468.968 329.422,470.111C324.984,471.927 320.297,472.437 315.494,469.783C307.75,465.503 305.512,456.14 307.998,448.106C308.373,446.889 307.127,445.643 305.91,446.018C297.876,448.504 288.513,446.271 284.233,438.522C281.541,433.654 282.108,428.906 283.985,424.407C285.076,422.403 286.097,420.348 287.23,418.363C287.754,417.534 288.292,416.719 288.835,415.914C288.943,415.75 289.009,415.591 289.056,415.432C289.226,415.184 289.395,414.941 289.574,414.698C289.215,413.866 288.865,413.029 288.529,412.185C288.238,412.139 287.952,412.086 287.661,412.033C287.52,411.954 287.361,411.888 287.169,411.85C286.265,411.677 285.353,411.49 284.439,411.284C282.145,410.661 279.884,409.898 277.604,409.228C273.138,407.374 269.42,404.415 267.903,399.092C265.474,390.567 270.502,382.402 277.955,378.474C279.06,377.893 279.06,376.123 277.955,375.543C270.506,371.615 265.474,363.445 267.903,354.924C269.43,349.568 273.185,346.609 277.684,344.755C279.921,344.095 282.141,343.351 284.393,342.742L288.529,341.831C288.865,340.987 289.215,340.151 289.574,339.318L287.286,335.743C286.102,333.669 285.048,331.52 283.906,329.422C282.089,324.984 281.579,320.298 284.233,315.494C288.513,307.75 297.876,305.513 305.91,307.999C307.127,308.373 308.373,307.128 307.998,305.911C305.512,297.876 307.746,288.513 315.494,284.234C320.363,281.542 325.11,282.108 329.609,283.986C331.618,285.077 333.668,286.097 335.653,287.23C336.482,287.754 337.297,288.293 338.102,288.836C338.266,288.944 338.425,289.009 338.584,289.056C338.832,289.226 339.075,289.396 339.318,289.574C340.15,289.215 340.987,288.865 341.831,288.529C341.877,288.239 341.93,287.952 341.983,287.661C342.063,287.52 342.128,287.361 342.166,287.169C342.339,286.266 342.526,285.353 342.732,284.44C343.355,282.146 344.118,279.884 344.788,277.604C346.642,273.138 349.601,269.421 354.924,267.904C363.449,265.474 371.614,270.502 375.542,277.955C376.123,279.06 377.893,279.06 378.474,277.955C382.401,270.507 390.571,265.474 399.092,267.904C404.448,269.43 407.406,273.185 409.261,277.684C409.921,279.922 410.665,282.141 411.274,284.393L412.185,288.529C413.029,288.865 413.865,289.215 414.697,289.574L418.273,287.287C420.348,286.102 422.496,285.049 424.594,283.906C429.032,282.09 433.719,281.579 438.522,284.234C446.266,288.513 448.504,297.876 446.018,305.911C445.643,307.128 446.889,308.373 448.105,307.999C456.14,305.513 465.503,307.746 469.782,315.494C472.475,320.363 471.907,325.111 470.03,329.61C468.939,331.614 467.919,333.669 466.786,335.654C466.262,336.483 465.724,337.297 465.18,338.102C465.072,338.267 465.007,338.426 464.96,338.585C464.791,338.832 464.62,339.076 464.442,339.318C464.801,340.151 465.151,340.987 465.487,341.831C465.777,341.877 466.064,341.93 466.355,341.984C466.496,342.063 466.655,342.129 466.847,342.166C467.75,342.34 468.663,342.527 469.576,342.733C471.87,343.355 474.132,344.119 476.412,344.788C480.878,346.642 484.596,349.601 486.112,354.924C488.542,363.45 483.514,371.615 476.061,375.543C474.956,376.123 474.956,377.893 476.061,378.474C483.51,382.402 488.542,390.572 486.112,399.092C484.586,404.449 480.831,407.407 476.332,409.261C474.094,409.921 471.875,410.665 469.623,411.274L465.487,412.185C465.151,413.029 464.801,413.866 464.442,414.698L466.729,418.274C467.914,420.348 468.968,422.496 470.11,424.594C471.927,429.033 472.436,433.719 469.782,438.522C465.503,446.266 456.14,448.504 448.105,446.018C446.889,445.643 445.643,446.889 446.018,448.106C448.504,456.14 446.27,465.503 438.522,469.783C433.653,472.475 428.905,471.909 424.406,470.031ZM503.899,204.919C510.016,204.531 516.147,204.341 522.274,204.264C531.731,204.152 541.193,204.353 550.613,203.403C549.663,212.823 549.864,222.285 549.752,231.742C549.678,237.859 549.488,243.98 549.1,250.088C549.022,251.309 548.936,252.531 548.842,253.751C548.661,256.08 548.451,258.408 548.202,260.731C547.514,267.167 546.678,274.325 545.139,281.36C544.329,285.06 543.324,288.726 542.042,292.234C539.34,299.622 535.405,306.311 529.474,311.152C528.987,311.548 528.49,311.934 527.977,312.306C527.512,312.329 527.046,312.346 526.58,312.361C523.273,312.466 519.941,312.385 516.604,312.275C509.795,312.05 502.965,311.71 496.283,312.609C493.388,312.999 490.52,313.621 487.694,314.586C485.555,315.32 483.465,316.244 481.494,317.37C480.887,317.717 480.29,318.081 479.708,318.467L481.44,316.276C482.713,314.923 484.02,313.598 485.368,312.325C486.384,311.448 487.448,310.63 488.553,309.868C490.263,308.688 492.075,307.656 493.967,306.773C495.553,306.032 497.19,305.391 498.88,304.876C502.04,303.913 505.311,303.365 508.605,303.281C509.733,303.252 510.864,303.277 511.993,303.359C512.916,303.429 514.337,303.681 515.659,303.659C517.278,303.633 518.748,303.192 518.972,301.497C518.996,301.315 519.008,301.122 519.002,300.911C518.955,299.269 517.683,298.378 516.091,297.889C514.227,297.315 511.926,297.293 510.636,297.268C509.933,297.253 509.23,297.269 508.531,297.309C504.699,297.524 500.928,298.526 497.405,300.03C492.568,302.098 488.337,305.117 484.46,308.584L479.957,312.861L478.565,314.403L479.408,309.656L480.794,307.554L483.628,304.011C484.843,302.745 486.082,301.501 487.372,300.316C488.18,299.642 489.023,299.013 489.889,298.413C491.327,297.414 492.841,296.521 494.419,295.738C496.457,294.727 498.596,293.893 500.822,293.274C502.872,292.705 504.971,292.325 507.087,292.126C509.427,291.906 511.787,291.91 514.128,292.156C514.145,292.157 514.163,292.159 514.181,292.161C516.373,292.393 520.581,292.924 520.173,289.403C520.031,288.201 519.241,287.419 518.161,286.911C516.237,286.005 513.397,285.968 511.676,285.97C511.537,285.97 511.404,285.971 511.282,285.971C508.923,285.978 506.582,286.295 504.297,286.848C502.279,287.336 500.304,288.006 498.402,288.831C493.317,291.041 488.922,294.281 484.914,297.989L480.387,302.507L480.854,297.741C481.763,296.322 482.76,294.978 483.842,293.71C485.115,292.357 486.422,291.032 487.77,289.758C491.33,286.684 495.476,284.302 499.969,282.746C500.403,282.597 500.836,282.444 501.276,282.309C503.5,281.632 505.78,281.165 508.085,280.915L514.391,280.793C516.567,280.952 521.512,282.141 521.403,278.344C521.336,275.996 518.768,275.182 516.34,274.886C515.078,274.732 513.853,274.718 513.037,274.702C512.17,274.683 511.305,274.707 510.441,274.771C507.981,274.953 505.55,275.457 503.194,276.205C502.043,276.57 500.91,276.991 499.802,277.464C496.215,278.999 492.957,281.059 489.931,283.437C488.415,284.627 486.956,285.896 485.546,287.221C484.024,288.537 482.597,289.96 481.285,291.486L481.51,287.319C481.515,287.319 481.515,287.319 481.515,287.314C482.555,285.578 483.743,283.948 485.045,282.427L488.969,278.475C490.447,277.199 492.027,276.04 493.689,275.009C496.418,273.318 499.371,271.972 502.479,271.026C503.462,270.727 504.456,270.473 505.456,270.255C506.854,269.951 508.268,269.732 509.689,269.594C511.648,269.404 513.622,269.366 515.594,269.51C517.766,269.669 522.71,270.858 522.602,267.061C522.499,263.494 516.628,263.465 514.236,263.418C509.686,263.32 505.172,264.397 501.005,266.181C499.3,266.91 497.67,267.757 496.104,268.701C494.305,269.785 492.591,270.996 490.944,272.301C489.497,273.448 488.102,274.667 486.749,275.938L481.95,280.784C482.072,279.332 482.208,277.876 482.386,276.429L486.243,271.143C487.517,269.79 488.818,268.466 490.172,267.187C491.359,266.163 492.618,265.225 493.927,264.357C495.482,263.325 497.117,262.408 498.817,261.616C500.388,260.885 502.009,260.251 503.679,259.744L507.163,258.866C509.518,258.388 511.913,258.144 514.315,258.146L517.662,258.315C519.461,258.526 522.067,258.877 523.219,257.628C523.463,257.364 523.639,257.025 523.73,256.601C523.783,256.355 523.81,256.085 523.801,255.778C523.702,252.21 517.827,252.182 515.439,252.131C511.535,252.05 507.659,252.833 504.002,254.184C503.396,254.407 502.796,254.644 502.203,254.898C500.178,255.762 498.266,256.807 496.434,257.971C496.072,258.201 495.709,258.428 495.354,258.666C495.594,258.31 495.823,257.945 496.053,257.582C497.176,255.812 498.187,253.964 499.034,252.014C499.311,251.377 499.564,250.729 499.807,250.077C501.105,246.58 501.891,242.874 501.895,239.134C501.895,236.671 501.951,230.318 498.238,230.215L496.367,230.831C495.156,232.005 495.519,234.592 495.702,236.28L495.871,239.703C495.873,242.146 495.617,244.58 495.122,246.974L494.408,249.865C493.874,251.706 493.195,253.491 492.395,255.212C491.604,256.911 490.685,258.541 489.654,260.096C488.811,261.368 487.9,262.593 486.908,263.751C485.598,265.142 484.235,266.485 482.845,267.796L477.587,271.63C476.141,271.809 474.684,271.944 473.232,272.066L478.055,267.29C479.331,265.934 480.554,264.535 481.706,263.083C483.011,261.438 484.223,259.725 485.308,257.926C486.217,256.419 487.038,254.852 487.751,253.217C489.512,249.163 490.607,244.771 490.611,240.337C490.611,237.875 490.668,231.521 486.955,231.414C483.364,231.311 484.272,235.782 484.464,237.935C484.649,240.041 484.63,242.152 484.432,244.246C484.289,245.748 484.048,247.24 483.72,248.716C483.544,249.505 483.352,250.29 483.125,251.068C482.17,254.357 480.768,257.476 478.984,260.348C477.979,261.965 476.858,263.506 475.62,264.95L471.561,268.999C470.045,270.287 468.43,271.467 466.701,272.501C466.697,272.501 466.697,272.501 466.697,272.506L462.53,272.731C464.047,271.424 465.466,270.006 466.772,268.494C468.102,267.08 469.374,265.62 470.567,264.101C472.905,261.129 474.936,257.933 476.468,254.415C476.977,253.245 477.422,252.043 477.81,250.822C478.551,248.485 479.05,246.072 479.237,243.63C479.291,242.934 479.328,242.235 479.328,241.536C479.328,240.623 479.336,239.176 479.156,237.71C478.852,235.222 478.009,232.68 475.672,232.612C472.081,232.509 472.989,236.98 473.182,239.134L473.102,245.932C472.868,248.071 472.446,250.191 471.843,252.267C471.67,252.862 471.478,253.45 471.277,254.033C469.737,258.492 467.376,262.605 464.337,266.153C463.031,267.543 461.669,268.887 460.278,270.198C459.019,271.27 457.68,272.263 456.275,273.162L451.51,273.63C451.514,273.63 451.519,273.625 451.519,273.62C453.152,272.23 454.665,270.708 456.046,269.083C459.74,265.076 462.975,260.689 465.185,255.614C466.011,253.713 466.684,251.735 467.173,249.714C467.726,247.43 468.043,245.09 468.045,242.734C468.045,242.612 468.046,242.479 468.046,242.341C468.045,240.608 468.012,237.779 467.108,235.859C466.601,234.781 465.819,233.99 464.613,233.844C461.078,233.416 461.632,237.672 461.855,239.837C461.857,239.854 461.859,239.872 461.86,239.888C462.104,242.234 462.106,244.596 461.886,246.937C461.686,249.048 461.308,251.142 460.742,253.194C460.132,255.399 459.309,257.518 458.311,259.539C457.511,261.16 456.594,262.712 455.565,264.187C454.982,265.022 454.375,265.839 453.724,266.621L449.389,270.984C448.454,271.777 447.478,272.522 446.462,273.222L444.36,274.608L439.612,275.451L441.156,274.059L445.433,269.555C448.85,265.737 451.833,261.569 453.897,256.817C455.456,253.235 456.49,249.389 456.714,245.484C456.743,244.969 456.762,244.454 456.762,243.938C456.762,242.559 456.779,239.959 456.143,237.919C455.643,236.318 454.739,235.061 453.105,235.014C452.895,235.008 452.701,235.019 452.52,235.043C450.839,235.267 450.406,236.732 450.375,238.319C450.352,239.47 450.539,240.684 450.615,241.536C450.729,242.834 450.759,244.134 450.726,245.431C450.645,248.554 450.152,251.658 449.276,254.668C448.735,256.524 448.05,258.325 447.239,260.059C446.357,261.946 445.326,263.753 444.149,265.459C443.411,266.53 442.618,267.562 441.771,268.55L437.544,272.738C436.894,273.283 436.229,273.813 435.54,274.313C435.927,273.729 436.294,273.131 436.643,272.522C437.768,270.557 438.694,268.47 439.431,266.321C440.395,263.495 441.018,260.626 441.407,257.73C442.306,251.048 441.966,244.218 441.741,237.409C441.631,234.071 441.55,230.74 441.655,227.433C441.67,226.968 441.687,226.503 441.71,226.039C442.078,225.531 442.461,225.038 442.853,224.556C447.688,218.627 454.367,214.692 461.745,211.988C465.28,210.693 468.975,209.682 472.704,208.868C479.724,207.335 486.863,206.501 493.285,205.814L503.899,204.919ZM552.166,254.567C555.326,255.372 558.464,256.254 561.575,257.191C580.46,262.882 598.153,272.001 617.022,277.591C607.633,294.887 601.563,313.842 592.24,331.223C590.705,334.087 589.102,336.925 587.437,339.727C585.035,337.684 582.6,335.679 580.113,333.735C569.776,325.652 557.581,316.685 544.395,313.475C545.701,313.471 547.009,313.528 548.316,313.654C552.988,314.111 557.569,315.371 561.77,317.487C563.818,318.521 569.073,321.9 569.726,317.324C570.216,313.887 564.8,311.749 562.348,310.738C558.269,309.059 553.852,308.337 549.454,308.324C546.445,308.31 543.495,308.658 540.597,309.247C543.002,307.661 545.275,305.872 547.352,303.806C550.397,300.775 552.982,297.253 554.715,293.307C555.814,290.809 558.363,285.103 555.483,282.94C552.012,280.334 550.59,285.744 549.9,287.95C548.491,292.443 546.202,296.603 543.264,300.266C542.337,301.42 541.347,302.515 540.306,303.552C547.018,292.466 549.352,278.311 550.988,265.849C551.478,262.098 551.862,258.336 552.166,254.567ZM603.157,354.096C598.935,349.999 594.628,345.987 590.201,342.113C591.197,340.412 592.164,338.723 593.101,337.066C598.335,327.798 602.896,318.175 607.134,308.414C611.685,297.927 615.705,287.188 621.308,277.189C621.747,276.412 621.192,275.086 620.337,274.846C609.512,271.795 599.259,267.162 588.826,263.026C578.739,259.026 568.512,255.358 558.052,252.452C556.218,251.942 554.34,251.431 552.433,250.933C552.803,245.404 553.011,239.863 553.108,234.321C553.301,223.38 552.912,212.406 554.2,201.516C554.298,200.673 553.338,199.718 552.5,199.816C541.61,201.104 530.637,200.715 519.695,200.907C514.146,201.006 508.598,201.214 503.062,201.585C502.74,200.334 502.413,199.096 502.086,197.877C499.19,187.107 495.477,176.574 491.393,166.195C487.149,155.42 482.325,144.849 479.174,133.681C478.929,132.817 477.603,132.272 476.824,132.707C466.699,138.376 455.812,142.44 445.193,147.059C434.966,151.51 424.893,156.331 415.229,161.899C414.137,162.53 413.03,163.174 411.918,163.831C408.172,159.548 404.298,155.378 400.342,151.289C392.832,143.522 384.911,136.13 378.206,127.623C377.686,126.958 376.329,126.963 375.81,127.623C369.231,135.971 361.478,143.247 354.095,150.859C349.999,155.081 345.986,159.388 342.112,163.815C340.412,162.818 338.723,161.852 337.065,160.916C327.797,155.682 318.173,151.115 308.414,146.883C297.926,142.331 287.188,138.311 277.188,132.709C276.411,132.269 275.086,132.824 274.845,133.68C271.794,144.505 267.161,154.757 263.025,165.19C259.026,175.276 255.358,185.504 252.451,195.964C251.941,197.799 251.431,199.676 250.933,201.583C245.404,201.214 239.863,201.006 234.321,200.907C223.379,200.715 212.405,201.104 201.516,199.816C200.673,199.718 199.718,200.678 199.816,201.516C201.103,212.406 200.715,223.38 200.907,234.321C201.005,239.87 201.214,245.418 201.584,250.954C200.333,251.276 199.095,251.603 197.876,251.93C187.106,254.825 176.574,258.539 166.195,262.624C155.42,266.867 144.848,271.691 133.681,274.842C132.816,275.087 132.271,276.413 132.707,277.192C138.375,287.317 142.44,298.204 147.059,308.823C151.509,319.05 156.331,329.124 161.899,338.787C162.53,339.88 163.174,340.986 163.831,342.099C159.549,345.845 155.38,349.719 151.29,353.674C143.522,361.184 136.129,369.105 127.623,375.809C126.958,376.33 126.963,377.687 127.623,378.206C135.971,384.785 143.246,392.538 150.858,399.921C155.081,404.017 159.388,408.03 163.814,411.904C162.818,413.605 161.852,415.293 160.915,416.951C155.681,426.219 151.119,435.841 146.882,445.603C142.33,456.09 138.311,466.829 132.708,476.828C132.269,477.605 132.824,478.93 133.679,479.171C144.504,482.221 154.757,486.855 165.189,490.991C175.276,494.991 185.504,498.658 195.964,501.565C197.798,502.075 199.676,502.585 201.583,503.083C201.213,508.612 201.005,514.154 200.907,519.695C200.715,530.636 201.103,541.611 199.816,552.5C199.718,553.343 200.678,554.298 201.516,554.201C212.405,552.913 223.379,553.301 234.321,553.109C239.87,553.01 245.417,552.802 250.954,552.432C251.276,553.683 251.603,554.921 251.93,556.14C254.825,566.91 258.539,577.443 262.624,587.822C266.867,598.596 271.69,609.167 274.842,620.335C275.087,621.2 276.412,621.745 277.192,621.309C287.317,615.64 298.203,611.577 308.822,606.957C319.05,602.507 329.124,597.685 338.786,592.117C339.879,591.487 340.986,590.842 342.099,590.186C345.844,594.466 349.718,598.636 353.674,602.727C361.184,610.494 369.105,617.886 375.81,626.393C376.329,627.058 377.686,627.053 378.206,626.393C384.784,618.045 392.537,610.77 399.921,603.158C404.017,598.935 408.029,594.628 411.903,590.202C413.604,591.198 415.293,592.164 416.95,593.101C426.219,598.335 435.841,602.897 445.603,607.133C456.089,611.686 466.827,615.705 476.827,621.308C477.604,621.747 478.93,621.193 479.171,620.336C482.221,609.512 486.854,599.259 490.99,588.827C494.99,578.74 498.658,568.512 501.564,558.052C502.074,556.218 502.585,554.34 503.083,552.433C508.611,552.803 514.153,553.011 519.695,553.109C530.637,553.301 541.61,552.913 552.5,554.201C553.343,554.298 554.298,553.338 554.2,552.5C552.912,541.611 553.301,530.636 553.108,519.695C553.011,514.147 552.802,508.598 552.432,503.063C553.683,502.741 554.921,502.413 556.14,502.086C566.909,499.191 577.442,495.477 587.821,491.393C598.596,487.15 609.167,482.326 620.335,479.174C621.199,478.929 621.744,477.604 621.309,476.825C615.64,466.7 611.576,455.813 606.957,445.194C602.507,434.966 597.685,424.893 592.116,415.23C591.486,414.136 590.842,413.03 590.185,411.917C594.466,408.172 598.636,404.298 602.727,400.342C610.494,392.832 617.886,384.912 626.393,378.206C627.058,377.687 627.054,376.33 626.393,375.809C618.046,369.232 610.769,361.479 603.157,354.096Z" style="fill:url(#_Linear2);fill-rule:nonzero;"/>
        </g>
    </g>
    <defs>
        <linearGradient id="_Linear2" x1="0" y1="0" x2="1" y2="0" gradientUnits="userSpaceOnUse" gradientTransform="matrix(481.805,189.632,-189.632,481.805,125.8,278.136)"><stop offset="0" style="stop-color:rgb(190,150,94);stop-opacity:0.300003"/><stop offset="0.28" style="stop-color:rgb(151,112,65);stop-opacity:0.300003"/><stop offset="0.63" style="stop-color:rgb(254,203,134);stop-opacity:0.300003"/><stop offset="1" style="stop-color:rgb(151,112,65);stop-opacity:0.300003"/></linearGradient>
    </defs>
</svg>
