<?xml version="1.0" encoding="UTF-8" standalone="no"?><!DOCTYPE svg PUBLIC "-//W3C//DTD SVG 1.1//EN" "http://www.w3.org/Graphics/SVG/1.1/DTD/svg11.dtd"><svg width="100%" height="100%" viewBox="0 0 50 50" version="1.1" xmlns="http://www.w3.org/2000/svg" xmlns:xlink="http://www.w3.org/1999/xlink" xml:space="preserve" xmlns:serif="http://www.serif.com/" style="fill-rule:evenodd;clip-rule:evenodd;stroke-linejoin:round;stroke-miterlimit:1.41421;"><path d="M50.061,10.438c-1.846,0.818 -3.826,1.369 -5.908,1.62c2.125,-1.273 3.757,-3.29 4.523,-5.688c-1.986,1.177 -4.19,2.033 -6.531,2.493c-1.874,-2 -4.547,-3.247 -7.504,-3.247c-5.68,0 -10.284,4.604 -10.284,10.282c0,0.805 0.092,1.589 0.269,2.343c-8.546,-0.429 -16.124,-4.523 -21.197,-10.744c-0.885,1.522 -1.391,3.289 -1.391,5.172c0,3.567 1.812,6.713 4.574,8.56c-1.688,-0.054 -3.271,-0.517 -4.657,-1.288c0,0.044 0,0.086 0,0.131c0,4.984 3.544,9.134 8.245,10.084c-0.86,0.236 -1.769,0.36 -2.707,0.36c-0.664,0 -1.309,-0.064 -1.938,-0.186c1.313,4.081 5.108,7.06 9.607,7.143c-3.517,2.757 -7.951,4.399 -12.77,4.399c-0.833,0 -1.649,-0.048 -2.452,-0.144c4.548,2.919 9.956,4.619 15.762,4.619c18.915,0 29.26,-15.668 29.26,-29.252c0,-0.448 -0.011,-0.894 -0.03,-1.332c2.008,-1.45 3.752,-3.263 5.129,-5.325Z" style="fill:#d99f69;fill-rule:nonzero;"/></svg>